<svg xmlns="http://www.w3.org/2000/svg" width="26" height="26" viewBox="0 0 26 26">
  <g id="CoinDecko_Active" transform="translate(-1014 -131)">
    <g id="Rectangle_599" data-name="Rectangle 599" transform="translate(1014 131)" fill="#fff" stroke="#f0f0f0" stroke-width="1">
      <rect width="26" height="26" rx="2" stroke="none"/>
      <rect x="0.5" y="0.5" width="25" height="25" rx="1.5" fill="none"/>
    </g>
    <g id="Coin_Gecko_AI" data-name="Coin Gecko AI" transform="translate(1018.999 136.001)">
      <path id="Path_850" data-name="Path 850" d="M16.282,8.1A8.141,8.141,0,1,1,8.106,0h0a8.141,8.141,0,0,1,8.177,8.1Z" fill="#1f1f1f"/>
      <path id="Path_851" data-name="Path 851" d="M25.449,17.931a7.529,7.529,0,1,1-7.563-7.492h0a7.53,7.53,0,0,1,7.563,7.492Z" transform="translate(-9.777 -9.824)" fill="#fff"/>
      <path id="Path_852" data-name="Path 852" d="M140.341,17.644a4.14,4.14,0,0,1,1.447,0,4.409,4.409,0,0,1,1.382.463,8.031,8.031,0,0,1,1.17.857c.369.3.737.608,1.087.944a5.5,5.5,0,0,1,.927,1.121A6.387,6.387,0,0,1,147,22.336a5.952,5.952,0,0,1,.267,2.868h-.047a13.213,13.213,0,0,0-.708-2.691,10.473,10.473,0,0,0-.557-1.251,12.332,12.332,0,0,0-.733-1.18,4.266,4.266,0,0,0-.982-.991A5.719,5.719,0,0,0,143,18.475c-.425-.168-.847-.339-1.291-.467s-.894-.223-1.365-.316Z" transform="translate(-132.06 -16.544)" fill="#f4f4f4"/>
      <path id="Path_853" data-name="Path 853" d="M44.387,68.868c-.546-.158-1.113-.382-1.686-.609a1.154,1.154,0,0,0-.418-.542,2.034,2.034,0,0,0-1.687-.173,4.21,4.21,0,0,0-1.971-.059c-5.206,1.434-2.254,4.933-4.165,8.45a7.5,7.5,0,0,0,7.445,3.04s-1.451-3.486,1.823-5.159C46.382,72.454,48.3,69.933,44.387,68.868Z" transform="translate(-32.426 -63.419)" fill="#1f1f1f"/>
      <path id="Path_854" data-name="Path 854" d="M203.571,126.194a.316.316,0,1,1-.317-.314A.316.316,0,0,1,203.571,126.194Z" transform="translate(-190.967 -118.456)" fill="#fff"/>
      <path id="Path_855" data-name="Path 855" d="M138.48,68.006a7.786,7.786,0,0,1,2.1.715C140.29,67.866,139.3,67.752,138.48,68.006Z" transform="translate(-130.31 -63.883)" fill="#1f1f1f"/>
      <path id="Path_856" data-name="Path 856" d="M98.152,83.365A1.456,1.456,0,1,1,96.7,81.91h0a1.456,1.456,0,0,1,1.456,1.455Z" transform="translate(-89.621 -77.079)" fill="#fff"/>
      <path id="Path_857" data-name="Path 857" d="M104.608,90.464a1.024,1.024,0,1,1-1.024-1.024h0A1.024,1.024,0,0,1,104.608,90.464Z" transform="translate(-96.509 -84.165)" fill="#1f1f1f"/>
      <path id="Path_858" data-name="Path 858" d="M44.835,131.87a7.281,7.281,0,0,1-4.424,1.462c-.891,0-1.071-.944-1.66-.483a4.191,4.191,0,0,1-2.225.734,2.77,2.77,0,0,1-2.612-2.354A13.276,13.276,0,0,1,33,135.913a7.364,7.364,0,0,0,7.528,3.126c-.313-2.2,1.615-4.361,2.7-5.464a14.278,14.278,0,0,0,1.61-1.705Z" transform="translate(-31.052 -123.49)" fill="#1f1f1f"/>
      <path id="Path_859" data-name="Path 859" d="M145.1,142.708a5.279,5.279,0,0,1-1.246.8,7.957,7.957,0,0,1-1.4.509,4.391,4.391,0,0,1-1.492.172,2.042,2.042,0,0,1-1.365-.6l.016-.018a2.6,2.6,0,0,0,1.364.376,6.386,6.386,0,0,0,1.433-.118,7.827,7.827,0,0,0,1.393-.431,5.185,5.185,0,0,0,1.279-.708Z" transform="translate(-131.364 -134.274)" fill="#58595b"/>
    </g>
  </g>
</svg>
