<svg xmlns="http://www.w3.org/2000/svg" xmlns:xlink="http://www.w3.org/1999/xlink" width="540" height="328" viewBox="0 0 540 328">
  <defs>
    <clipPath id="clip-path">
      <rect id="Rectangle_642" data-name="Rectangle 642" width="96" height="259" transform="translate(1270 220)" fill="#fff" stroke="#707070" stroke-width="1"/>
    </clipPath>
  </defs>
  <g id="Group_977" data-name="Group 977" transform="translate(-1125 -179)">
    <g id="Group_749" data-name="Group 749" transform="translate(-25 -4)">
      <rect id="Rectangle_210" data-name="Rectangle 210" width="540" height="328" rx="6" transform="translate(1150 183)" fill="#fff"/>
    </g>
    <g id="Rectangle_645" data-name="Rectangle 645" transform="translate(1414 270)" fill="#fff" stroke="#c6cfe6" stroke-width="4">
      <rect width="133" height="164" rx="18" stroke="none"/>
      <rect x="2" y="2" width="129" height="160" rx="16" fill="none"/>
    </g>
    <g id="Rectangle_644" data-name="Rectangle 644" transform="translate(1404 261)" fill="#fff" stroke="#7888b5" stroke-width="4">
      <rect width="133" height="164" rx="18" stroke="none"/>
      <rect x="2" y="2" width="129" height="160" rx="16" fill="none"/>
    </g>
    <g id="Rectangle_643" data-name="Rectangle 643" transform="translate(1394 252)" fill="#fff" stroke="#091f5c" stroke-width="4">
      <rect width="133" height="164" rx="18" stroke="none"/>
      <rect x="2" y="2" width="129" height="160" rx="16" fill="none"/>
    </g>
    <g id="Group_975" data-name="Group 975" transform="translate(0 -6)">
      <g id="Group_973" data-name="Group 973" transform="translate(-33 9)">
        <g id="Path_881" data-name="Path 881" transform="translate(1240 303)" fill="#fff">
          <path d="M 31.3671875 60.73437881469727 C 27.40175819396973 60.73437881469727 23.55600738525391 59.95818710327148 19.936767578125 58.42737579345703 C 16.43997764587402 56.94836807250977 13.29912757873535 54.83060836791992 10.60144710540771 52.13292694091797 C 7.903767585754395 49.43524932861328 5.786007404327393 46.29439926147461 4.306997299194336 42.797607421875 C 2.776187419891357 39.17836761474609 1.999997496604919 35.33261871337891 1.999997496604919 31.3671875 C 1.999997496604919 27.40175819396973 2.776187419891357 23.55600738525391 4.306997299194336 19.936767578125 C 5.786007404327393 16.43997764587402 7.903767585754395 13.29912757873535 10.60144710540771 10.60144710540771 C 13.29912757873535 7.903767585754395 16.43997764587402 5.786007404327393 19.936767578125 4.306997299194336 C 23.55600738525391 2.776187419891357 27.40175819396973 1.999997496604919 31.3671875 1.999997496604919 C 35.33261871337891 1.999997496604919 39.17836761474609 2.776187419891357 42.797607421875 4.306997299194336 C 46.29439926147461 5.786007404327393 49.43524932861328 7.903767585754395 52.13292694091797 10.60144710540771 C 54.83060836791992 13.29912757873535 56.94836807250977 16.43997764587402 58.42737579345703 19.936767578125 C 59.95818710327148 23.55600738525391 60.73437881469727 27.40175819396973 60.73437881469727 31.3671875 C 60.73437881469727 35.33261871337891 59.95818710327148 39.17836761474609 58.42737579345703 42.797607421875 C 56.94836807250977 46.29439926147461 54.83060836791992 49.43524932861328 52.13292694091797 52.13292694091797 C 49.43524932861328 54.83060836791992 46.29439926147461 56.94836807250977 42.797607421875 58.42737579345703 C 39.17836761474609 59.95818710327148 35.33261871337891 60.73437881469727 31.3671875 60.73437881469727 Z" stroke="none"/>
          <path d="M 31.3671875 4 C 27.67088317871094 4 24.08725738525391 4.723033905029297 20.71586990356445 6.149009704589844 C 17.45748138427734 7.527187347412109 14.53031539916992 9.501022338867188 12.01567077636719 12.01567077636719 C 9.501022338867188 14.53031539916992 7.527187347412109 17.45748138427734 6.149009704589844 20.71586990356445 C 4.723033905029297 24.08725738525391 4 27.67088317871094 4 31.3671875 C 4 35.06349182128906 4.723033905029297 38.64711761474609 6.149009704589844 42.01850509643555 C 7.527187347412109 45.27689361572266 9.501022338867188 48.20405578613281 12.01567077636719 50.71870422363281 C 14.53031539916992 53.23335266113281 17.45748138427734 55.20718765258789 20.71586990356445 56.58536529541016 C 24.08725738525391 58.0113410949707 27.67088317871094 58.734375 31.3671875 58.734375 C 35.06349182128906 58.734375 38.64711761474609 58.0113410949707 42.01850509643555 56.58536529541016 C 45.27689361572266 55.20718765258789 48.20405578613281 53.23335266113281 50.71870422363281 50.71870422363281 C 53.23335266113281 48.20405578613281 55.20718765258789 45.27689361572266 56.58536529541016 42.01850509643555 C 58.0113410949707 38.64711761474609 58.734375 35.06349182128906 58.734375 31.3671875 C 58.734375 27.67088317871094 58.0113410949707 24.08725738525391 56.58536529541016 20.71586990356445 C 55.20718765258789 17.45748138427734 53.23335266113281 14.53031539916992 50.71870422363281 12.01567077636719 C 48.20405578613281 9.501022338867188 45.27689361572266 7.527187347412109 42.01850509643555 6.149009704589844 C 38.64711761474609 4.723033905029297 35.06349182128906 4 31.3671875 4 M 31.3671875 0 C 48.69079971313477 0 62.734375 14.04357528686523 62.734375 31.3671875 C 62.734375 48.69079971313477 48.69079971313477 62.734375 31.3671875 62.734375 C 14.04357528686523 62.734375 0 48.69079971313477 0 31.3671875 C 0 14.04357528686523 14.04357528686523 0 31.3671875 0 Z" stroke="none" fill="#091f5c"/>
        </g>
        <g id="Pause2" transform="translate(982 -56)">
          <g id="Group_774" data-name="Group 774" transform="translate(275 377)">
            <path id="Path_821" data-name="Path 821" d="M26.675,13A13.692,13.692,0,1,1,13,26.675,13.7,13.7,0,0,1,26.675,13Zm-4.469,6.7h2.168a.677.677,0,0,1,.7.667V32.979a.684.684,0,0,1-.7.7H22.206a.677.677,0,0,1-.667-.7V20.371A.669.669,0,0,1,22.206,19.7Zm6.771,0h2.2a.669.669,0,0,1,.667.667V32.979a.677.677,0,0,1-.667.7h-2.2a.677.677,0,0,1-.667-.7V20.371A.669.669,0,0,1,28.977,19.7Z" transform="translate(-13 -13)" fill="#1f1f1f"/>
          </g>
        </g>
      </g>
      <g id="Group_972" data-name="Group 972" transform="translate(-156.633 11.266)">
        <g id="Path_880" data-name="Path 880" transform="translate(1363.633 209)" fill="#fff">
          <path d="M 31.3671875 60.73437881469727 C 27.40175819396973 60.73437881469727 23.55600738525391 59.95818710327148 19.936767578125 58.42737579345703 C 16.43997764587402 56.94836807250977 13.29912757873535 54.83060836791992 10.60144710540771 52.13292694091797 C 7.903767585754395 49.43524932861328 5.786007404327393 46.29439926147461 4.306997299194336 42.797607421875 C 2.776187419891357 39.17836761474609 1.999997496604919 35.33261871337891 1.999997496604919 31.3671875 C 1.999997496604919 27.40175819396973 2.776187419891357 23.55600738525391 4.306997299194336 19.936767578125 C 5.786007404327393 16.43997764587402 7.903767585754395 13.29912757873535 10.60144710540771 10.60144710540771 C 13.29912757873535 7.903767585754395 16.43997764587402 5.786007404327393 19.936767578125 4.306997299194336 C 23.55600738525391 2.776187419891357 27.40175819396973 1.999997496604919 31.3671875 1.999997496604919 C 35.33261871337891 1.999997496604919 39.17836761474609 2.776187419891357 42.797607421875 4.306997299194336 C 46.29439926147461 5.786007404327393 49.43524932861328 7.903767585754395 52.13292694091797 10.60144710540771 C 54.83060836791992 13.29912757873535 56.94836807250977 16.43997764587402 58.42737579345703 19.936767578125 C 59.95818710327148 23.55600738525391 60.73437881469727 27.40175819396973 60.73437881469727 31.3671875 C 60.73437881469727 35.33261871337891 59.95818710327148 39.17836761474609 58.42737579345703 42.797607421875 C 56.94836807250977 46.29439926147461 54.83060836791992 49.43524932861328 52.13292694091797 52.13292694091797 C 49.43524932861328 54.83060836791992 46.29439926147461 56.94836807250977 42.797607421875 58.42737579345703 C 39.17836761474609 59.95818710327148 35.33261871337891 60.73437881469727 31.3671875 60.73437881469727 Z" stroke="none"/>
          <path d="M 31.3671875 4 C 27.67088317871094 4 24.08725738525391 4.723033905029297 20.71586990356445 6.149009704589844 C 17.45748138427734 7.527187347412109 14.53031539916992 9.501022338867188 12.01567077636719 12.01567077636719 C 9.501022338867188 14.53031539916992 7.527187347412109 17.45748138427734 6.149009704589844 20.71586990356445 C 4.723033905029297 24.08725738525391 4 27.67088317871094 4 31.3671875 C 4 35.06349182128906 4.723033905029297 38.64711761474609 6.149009704589844 42.01850509643555 C 7.527187347412109 45.27689361572266 9.501022338867188 48.20405578613281 12.01567077636719 50.71870422363281 C 14.53031539916992 53.23335266113281 17.45748138427734 55.20718765258789 20.71586990356445 56.58536529541016 C 24.08725738525391 58.0113410949707 27.67088317871094 58.734375 31.3671875 58.734375 C 35.06349182128906 58.734375 38.64711761474609 58.0113410949707 42.01850509643555 56.58536529541016 C 45.27689361572266 55.20718765258789 48.20405578613281 53.23335266113281 50.71870422363281 50.71870422363281 C 53.23335266113281 48.20405578613281 55.20718765258789 45.27689361572266 56.58536529541016 42.01850509643555 C 58.0113410949707 38.64711761474609 58.734375 35.06349182128906 58.734375 31.3671875 C 58.734375 27.67088317871094 58.0113410949707 24.08725738525391 56.58536529541016 20.71586990356445 C 55.20718765258789 17.45748138427734 53.23335266113281 14.53031539916992 50.71870422363281 12.01567077636719 C 48.20405578613281 9.501022338867188 45.27689361572266 7.527187347412109 42.01850509643555 6.149009704589844 C 38.64711761474609 4.723033905029297 35.06349182128906 4 31.3671875 4 M 31.3671875 0 C 48.69079971313477 0 62.734375 14.04357528686523 62.734375 31.3671875 C 62.734375 48.69079971313477 48.69079971313477 62.734375 31.3671875 62.734375 C 14.04357528686523 62.734375 0 48.69079971313477 0 31.3671875 C 0 14.04357528686523 14.04357528686523 0 31.3671875 0 Z" stroke="none" fill="#091f5c"/>
        </g>
        <g id="Burn" transform="translate(1499.739 41.129)">
          <path id="Path_823" data-name="Path 823" d="M33.234,13.173c-2.63.665-3.644,1.679-4.373,3.834.317-2.25.19-8.461-7.763-11.407,1.426,4.151,1.394,10.647-1.014,12.58.76-2.567-1.267-4.785-3.232-6.4,1.141,6.623-6.94,7.8-3.866,16.161a10.157,10.157,0,0,0,5.8,5.514c-1.679-4.436,2.25-10.457,5.07-11.724-.856,2.123.982,5.292,2.123,6.021a2.825,2.825,0,0,1,.7-3.169c.222,3.327,5.038,4.943,3.137,9.506a9.34,9.34,0,0,0,6.306-7.478C37.068,21.444,32.03,17.451,33.234,13.173Z" transform="translate(-129 179.394)" fill="red"/>
        </g>
      </g>
      <g id="Group_974" data-name="Group 974" transform="translate(-319 100.734)">
        <g id="Path_882" data-name="Path 882" transform="translate(1526 303)" fill="#fff">
          <path d="M 31.3671875 60.73437881469727 C 27.40175819396973 60.73437881469727 23.55600738525391 59.95818710327148 19.936767578125 58.42737579345703 C 16.43997764587402 56.94836807250977 13.29912757873535 54.83060836791992 10.60144710540771 52.13292694091797 C 7.903767585754395 49.43524932861328 5.786007404327393 46.29439926147461 4.306997299194336 42.797607421875 C 2.776187419891357 39.17836761474609 1.999997496604919 35.33261871337891 1.999997496604919 31.3671875 C 1.999997496604919 27.40175819396973 2.776187419891357 23.55600738525391 4.306997299194336 19.936767578125 C 5.786007404327393 16.43997764587402 7.903767585754395 13.29912757873535 10.60144710540771 10.60144710540771 C 13.29912757873535 7.903767585754395 16.43997764587402 5.786007404327393 19.936767578125 4.306997299194336 C 23.55600738525391 2.776187419891357 27.40175819396973 1.999997496604919 31.3671875 1.999997496604919 C 35.33261871337891 1.999997496604919 39.17836761474609 2.776187419891357 42.797607421875 4.306997299194336 C 46.29439926147461 5.786007404327393 49.43524932861328 7.903767585754395 52.13292694091797 10.60144710540771 C 54.83060836791992 13.29912757873535 56.94836807250977 16.43997764587402 58.42737579345703 19.936767578125 C 59.95818710327148 23.55600738525391 60.73437881469727 27.40175819396973 60.73437881469727 31.3671875 C 60.73437881469727 35.33261871337891 59.95818710327148 39.17836761474609 58.42737579345703 42.797607421875 C 56.94836807250977 46.29439926147461 54.83060836791992 49.43524932861328 52.13292694091797 52.13292694091797 C 49.43524932861328 54.83060836791992 46.29439926147461 56.94836807250977 42.797607421875 58.42737579345703 C 39.17836761474609 59.95818710327148 35.33261871337891 60.73437881469727 31.3671875 60.73437881469727 Z" stroke="none"/>
          <path d="M 31.3671875 4 C 27.67088317871094 4 24.08725738525391 4.723033905029297 20.71586990356445 6.149009704589844 C 17.45748138427734 7.527187347412109 14.53031539916992 9.501022338867188 12.01567077636719 12.01567077636719 C 9.501022338867188 14.53031539916992 7.527187347412109 17.45748138427734 6.149009704589844 20.71586990356445 C 4.723033905029297 24.08725738525391 4 27.67088317871094 4 31.3671875 C 4 35.06349182128906 4.723033905029297 38.64711761474609 6.149009704589844 42.01850509643555 C 7.527187347412109 45.27689361572266 9.501022338867188 48.20405578613281 12.01567077636719 50.71870422363281 C 14.53031539916992 53.23335266113281 17.45748138427734 55.20718765258789 20.71586990356445 56.58536529541016 C 24.08725738525391 58.0113410949707 27.67088317871094 58.734375 31.3671875 58.734375 C 35.06349182128906 58.734375 38.64711761474609 58.0113410949707 42.01850509643555 56.58536529541016 C 45.27689361572266 55.20718765258789 48.20405578613281 53.23335266113281 50.71870422363281 50.71870422363281 C 53.23335266113281 48.20405578613281 55.20718765258789 45.27689361572266 56.58536529541016 42.01850509643555 C 58.0113410949707 38.64711761474609 58.734375 35.06349182128906 58.734375 31.3671875 C 58.734375 27.67088317871094 58.0113410949707 24.08725738525391 56.58536529541016 20.71586990356445 C 55.20718765258789 17.45748138427734 53.23335266113281 14.53031539916992 50.71870422363281 12.01567077636719 C 48.20405578613281 9.501022338867188 45.27689361572266 7.527187347412109 42.01850509643555 6.149009704589844 C 38.64711761474609 4.723033905029297 35.06349182128906 4 31.3671875 4 M 31.3671875 0 C 48.69079971313477 0 62.734375 14.04357528686523 62.734375 31.3671875 C 62.734375 48.69079971313477 48.69079971313477 62.734375 31.3671875 62.734375 C 14.04357528686523 62.734375 0 48.69079971313477 0 31.3671875 C 0 14.04357528686523 14.04357528686523 0 31.3671875 0 Z" stroke="none" fill="#091f5c"/>
        </g>
        <g id="Minting" transform="translate(1545 322)">
          <path id="Path_824" data-name="Path 824" d="M2.6,7.327A13.5,13.5,0,0,0,8.163,8.411a13.5,13.5,0,0,0,5.561-1.084c1.678-.783,2.6-1.891,2.6-3.121s-.924-2.338-2.6-3.121A13.5,13.5,0,0,0,8.163,0,13.5,13.5,0,0,0,2.6,1.084C.924,1.867,0,2.975,0,4.205S.924,6.543,2.6,7.327Z" transform="translate(0)" fill="#30b52b"/>
          <circle id="Ellipse_106" data-name="Ellipse 106" cx="4.207" cy="4.207" r="4.207" transform="translate(12.474 12.474)" fill="#30b52b"/>
          <path id="Path_825" data-name="Path 825" d="M170.658,162a8.658,8.658,0,1,0,8.658,8.658A8.668,8.668,0,0,0,170.658,162Zm0,14.348a5.69,5.69,0,1,1,5.69-5.69A5.69,5.69,0,0,1,170.658,176.348Z" transform="translate(-154.183 -154.183)" fill="#30b52b"/>
          <path id="Path_826" data-name="Path 826" d="M6.661,322.726a14.045,14.045,0,0,1-4.686-1.16A7.706,7.706,0,0,1,0,320.28v5.28c0,1.23.924,2.338,2.6,3.121a13.5,13.5,0,0,0,5.561,1.084,15.865,15.865,0,0,0,2.842-.251,10.158,10.158,0,0,1-4.345-6.788Z" transform="translate(0 -304.632)" fill="#30b52b"/>
          <path id="Path_827" data-name="Path 827" d="M2.63,157.681a12.312,12.312,0,0,0,3.93,1v-.117a10.1,10.1,0,0,1,2.629-6.806q-.495.028-1,.028A15,15,0,0,1,2,150.566,7.705,7.705,0,0,1,.03,149.28v5.28C.028,155.79.953,156.9,2.63,157.681Z" transform="translate(-0.028 -141.986)" fill="#30b52b"/>
        </g>
      </g>
      <rect id="Rectangle_641" data-name="Rectangle 641" width="117" height="195" rx="30" transform="translate(1228 246)" fill="none"/>
      <g id="Mask_Group_12" data-name="Mask Group 12" transform="translate(-1)" clip-path="url(#clip-path)">
        <path id="Rectangle_641_-_Outline" data-name="Rectangle 641 - Outline" d="M30,4A25.975,25.975,0,0,0,4,30V165a25.975,25.975,0,0,0,26,26H87a25.975,25.975,0,0,0,26-26V30A25.975,25.975,0,0,0,87,4H30m0-4H87a30,30,0,0,1,30,30V165a30,30,0,0,1-30,30H30A30,30,0,0,1,0,165V30A30,30,0,0,1,30,0Z" transform="translate(1228 246)" fill="#091f5c"/>
      </g>
      <line id="Line_23" data-name="Line 23" x2="124" transform="translate(1269.5 343.5)" fill="none" stroke="#091f5c" stroke-width="4"/>
    </g>
    <g id="noun-coin-4561270" transform="translate(1202.783 -67.998)">
      <path id="Path_883" data-name="Path 883" d="M128.483,134.171a60.666,60.666,0,0,1-13.126,1.372c-14.067,0-24.58-4.326-24.58-8.193v-5.879c5,3.843,14.991,5.879,24.58,5.879a66.61,66.61,0,0,0,10.35-.774,1.639,1.639,0,1,0-.511-3.237,63.467,63.467,0,0,1-9.839.734c-14.067,0-24.58-4.326-24.58-8.193V110c5,3.843,14.991,5.879,24.58,5.879a67.215,67.215,0,0,0,10.952-.874,1.638,1.638,0,0,0-.536-3.233,63.927,63.927,0,0,1-10.416.83c-14.067,0-24.58-4.326-24.58-8.193V98.531c5,3.843,14.991,5.879,24.58,5.879a59.287,59.287,0,0,0,17.425-2.4,1.639,1.639,0,0,0-1-3.122,55.956,55.956,0,0,1-16.429,2.25c-14.067,0-24.58-4.326-24.58-8.193V87.061c5,3.843,14.991,5.879,24.58,5.879s19.577-2.036,24.58-5.879v5.4a1.639,1.639,0,0,0,3.277,0V81.469c0-7.451-14.353-11.47-27.857-11.47S87.5,74.018,87.5,81.469V127.35c0,7.451,14.353,11.47,27.857,11.47a64,64,0,0,0,13.848-1.452,1.639,1.639,0,1,0-.722-3.2Zm-13.126-60.9c14.067,0,24.58,4.326,24.58,8.193s-10.512,8.193-24.58,8.193-24.58-4.326-24.58-8.193S101.29,73.276,115.358,73.276Zm42.6,19.664a27.888,27.888,0,1,0,19.688,8.168,27.857,27.857,0,0,0-19.688-8.168Zm0,52.436a24.606,24.606,0,1,1,17.373-7.207A24.581,24.581,0,0,1,157.962,145.376Zm0-45.882a21.325,21.325,0,1,0,15.056,6.246,21.3,21.3,0,0,0-15.056-6.246Zm0,39.327a18.046,18.046,0,1,1,12.74-5.285A18.026,18.026,0,0,1,157.962,138.821Z" transform="translate(126 305)" fill="#0089ff"/>
    </g>
    <g id="Group_976" data-name="Group 976" transform="translate(28 -6)">
      <g id="XDC-Icon-128X128" transform="translate(1409 276)">
        <path id="Combined_Shape" data-name="Combined Shape" d="M8.5,17a8.567,8.567,0,0,1-5.721-2.181A8.464,8.464,0,0,1,0,9.454L1.92,8.5,0,7.546A8.464,8.464,0,0,1,2.779,2.181a8.593,8.593,0,0,1,11.442,0A8.465,8.465,0,0,1,17,7.546L15.08,8.5,17,9.454a8.464,8.464,0,0,1-2.779,5.365A8.566,8.566,0,0,1,8.5,17Z" transform="translate(0 0)" fill="#0089ff"/>
        <path id="X" d="M1.322,6.508,2.735,4.121,4.142,6.508H5.469L3.445,3.227,5.424,0H4.111L2.735,2.351,1.358,0H.045L2.028,3.227,0,6.508Z" transform="translate(5.751 5.261)" fill="#fff"/>
      </g>
      <text id="XDC" transform="translate(1430 289)" fill="#0089ff" font-size="12" font-family="Inter" font-weight="600" letter-spacing="0.001em"><tspan x="0" y="0">XDC</tspan></text>
    </g>
  </g>
</svg>
