<svg xmlns="http://www.w3.org/2000/svg" xmlns:xlink="http://www.w3.org/1999/xlink" width="128" height="128" viewBox="0 0 128 128">
  <defs>
    <linearGradient id="linear-gradient" x1="0.5" x2="0.5" y2="1" gradientUnits="objectBoundingBox">
      <stop offset="0" stop-color="#0089ff"/>
      <stop offset="1" stop-color="#091f5c"/>
    </linearGradient>
  </defs>
  <g id="Group_985" data-name="Group 985" transform="translate(-865.156 -757.156)" opacity="0.458">
    <path id="Path_885" data-name="Path 885" d="M64,0A64,64,0,1,1,0,64,64,64,0,0,1,64,0Z" transform="translate(865.156 757.156)" fill="url(#linear-gradient)"/>
    <path id="Path_886" data-name="Path 886" d="M-25.379-21.769l6.074,9.93h.2l6.074-9.93h4.438L-16.5-9.075-8.545,3.619h-4.463l-6.1-9.793h-.2l-6.1,9.793h-4.463l8.1-12.694-8.045-12.694ZM-4.788,3.619V-21.769h9.05a10.554,10.554,0,0,1,4.9,1.017,6.76,6.76,0,0,1,2.919,2.808,8.568,8.568,0,0,1,.967,4.134,8.354,8.354,0,0,1-.973,4.1A6.622,6.622,0,0,1,9.152-6.968a10.893,10.893,0,0,1-4.9.979H-2.607v-3.3H3.9a7.367,7.367,0,0,0,3.031-.533,3.53,3.53,0,0,0,1.717-1.55A5.1,5.1,0,0,0,9.2-13.811,5.3,5.3,0,0,0,8.643-16.3,3.671,3.671,0,0,0,6.92-17.92a7.114,7.114,0,0,0-3.068-.564H-.958v22.1ZM7.745-7.835,14.017,3.619H9.654L3.505-7.835Zm31.066-5.678H34.943a5.913,5.913,0,0,0-.831-2.182,6.1,6.1,0,0,0-1.488-1.6,6.423,6.423,0,0,0-1.965-.992,7.757,7.757,0,0,0-2.3-.335,7.138,7.138,0,0,0-3.924,1.1,7.468,7.468,0,0,0-2.727,3.236,12.228,12.228,0,0,0-1,5.207,12.294,12.294,0,0,0,1,5.231A7.37,7.37,0,0,0,24.443-.621,7.185,7.185,0,0,0,28.348.47,7.849,7.849,0,0,0,30.635.142,6.473,6.473,0,0,0,32.6-.831a6.054,6.054,0,0,0,1.494-1.581,5.94,5.94,0,0,0,.849-2.151l3.868.012a10.374,10.374,0,0,1-1.2,3.44,9.532,9.532,0,0,1-2.269,2.7,10.268,10.268,0,0,1-3.155,1.754,11.645,11.645,0,0,1-3.868.62A11.082,11.082,0,0,1,22.447,2.4,10.847,10.847,0,0,1,18.387-2.1a15.285,15.285,0,0,1-1.481-6.979,15.222,15.222,0,0,1,1.488-6.986,10.9,10.9,0,0,1,4.066-4.488,11.058,11.058,0,0,1,5.864-1.568,12.02,12.02,0,0,1,3.775.576,10.128,10.128,0,0,1,3.155,1.686,9.383,9.383,0,0,1,2.318,2.7A10.5,10.5,0,0,1,38.811-13.513Z" transform="translate(924.269 816.373)" fill="#fff"/>
    <path id="Path_887" data-name="Path 887" d="M-16.786,3.619V.842l8.591-8.9q1.376-1.45,2.275-2.548a9.541,9.541,0,0,0,1.345-2.089A5.077,5.077,0,0,0-4.129-14.8a3.951,3.951,0,0,0-.6-2.188,3.947,3.947,0,0,0-1.624-1.426,5.217,5.217,0,0,0-2.318-.5,4.871,4.871,0,0,0-2.38.558,3.823,3.823,0,0,0-1.562,1.574,4.961,4.961,0,0,0-.545,2.38h-3.657a7.588,7.588,0,0,1,1.066-4.054,7.285,7.285,0,0,1,2.926-2.7,9.075,9.075,0,0,1,4.227-.961,9.039,9.039,0,0,1,4.221.948A7.237,7.237,0,0,1-1.514-18.59,6.742,6.742,0,0,1-.485-14.914a7.549,7.549,0,0,1-.527,2.764A12.235,12.235,0,0,1-2.84-9.143a50.556,50.556,0,0,1-3.62,4.01L-11.505.148V.334H-.076V3.619Zm30.248.421a8.28,8.28,0,0,1-5.021-1.55A9.547,9.547,0,0,1,5.255-1.984a20.181,20.181,0,0,1-1.1-7.079,19.933,19.933,0,0,1,1.11-7.054,9.57,9.57,0,0,1,3.2-4.463,8.206,8.206,0,0,1,5-1.537,8.156,8.156,0,0,1,5,1.543A9.631,9.631,0,0,1,21.65-16.11a19.881,19.881,0,0,1,1.11,7.048,20.169,20.169,0,0,1-1.1,7.085A9.589,9.589,0,0,1,18.47,2.5,8.176,8.176,0,0,1,13.462,4.041Zm0-3.31A4.479,4.479,0,0,0,17.5-1.786a14.732,14.732,0,0,0,1.457-7.277,18.647,18.647,0,0,0-.663-5.349,7.27,7.27,0,0,0-1.9-3.322,4.185,4.185,0,0,0-2.932-1.134A4.481,4.481,0,0,0,9.433-16.34,14.8,14.8,0,0,0,7.958-9.063,18.7,18.7,0,0,0,8.621-3.7a7.21,7.21,0,0,0,1.89,3.31A4.22,4.22,0,0,0,13.462.731Z" transform="translate(926.405 848.955)" fill="#fff"/>
  </g>
</svg>
