<svg xmlns="http://www.w3.org/2000/svg" width="30" height="30" viewBox="0 0 30 30">
  <g id="FAQ_Active" transform="translate(-1256 -136)">
    <rect id="Rectangle_607" data-name="Rectangle 607" width="30" height="30" transform="translate(1256 136)" fill="none"/>
    <g id="Group_961" data-name="Group 961" transform="translate(1260 140)">
      <path id="Path_802" data-name="Path 802" d="M7,18A11,11,0,1,1,18,29,11,11,0,0,1,7,18Zm7.923-4.851a1,1,0,1,1-1.891-.641,5.091,5.091,0,1,1,5.823,6.624v2.46a1,1,0,0,1-2,0V18.827a1.637,1.637,0,0,1,1.418-1.618,3.1,3.1,0,1,0-3.35-4.06Zm3.041,10.539a1.333,1.333,0,1,1-1.333,1.333,1.334,1.334,0,0,1,1.333-1.333Z" transform="translate(-7 -7)" fill="#fff"/>
    </g>
  </g>
</svg>
