<svg xmlns="http://www.w3.org/2000/svg" width="24.449" height="28.269" viewBox="0 0 24.449 28.269">
  <g id="Origin-Logo-White" transform="translate(-21.551 145)">
    <path id="Subtraction_2" data-name="Subtraction 2" d="M11.129,22.258a11.211,11.211,0,0,1-2.243-.226,11.066,11.066,0,0,1-3.979-1.675,11.162,11.162,0,0,1-4.032-4.9,11.077,11.077,0,0,1-.648-2.089,11.236,11.236,0,0,1,0-4.486A11.066,11.066,0,0,1,1.9,4.907,11.162,11.162,0,0,1,6.8.875,11.077,11.077,0,0,1,8.886.226a11.236,11.236,0,0,1,4.486,0l.205.044A6.313,6.313,0,0,1,14.8,1,4.8,4.8,0,0,1,16,2.312a4.194,4.194,0,0,1,.6,2,5.481,5.481,0,0,1-.1,1.293,7.94,7.94,0,0,1-.463,1.508c-.132-.161-.274-.318-.421-.465A6.346,6.346,0,0,0,13.6,5.291a6.3,6.3,0,0,0-1.189-.369,6.4,6.4,0,0,0-2.554,0,6.3,6.3,0,0,0-2.266.953,6.354,6.354,0,0,0-2.3,2.788,6.3,6.3,0,0,0-.369,1.189,6.4,6.4,0,0,0,0,2.554,6.3,6.3,0,0,0,.953,2.266,6.353,6.353,0,0,0,2.788,2.3,6.3,6.3,0,0,0,1.189.369,6.4,6.4,0,0,0,2.554,0,6.3,6.3,0,0,0,2.266-.953,6.354,6.354,0,0,0,2.3-2.788,6.3,6.3,0,0,0,.369-1.189,6.4,6.4,0,0,0,0-2.554,6.306,6.306,0,0,0-.3-1.006,1.253,1.253,0,0,0-.021-.184A7.521,7.521,0,0,1,16.9,7.193a10.8,10.8,0,0,1,.109-1.413,9.9,9.9,0,0,1,.461-1.957,1.952,1.952,0,0,1,.365-.611.758.758,0,0,1,.554-.275.787.787,0,0,1,.416.132c.066.063.132.127.2.191A11.146,11.146,0,0,1,21.383,6.8a11.077,11.077,0,0,1,.648,2.089,11.236,11.236,0,0,1,0,4.486,11.066,11.066,0,0,1-1.675,3.979,11.162,11.162,0,0,1-4.9,4.032,11.077,11.077,0,0,1-2.089.648A11.211,11.211,0,0,1,11.129,22.258Z" transform="translate(21.551 -138.989)" fill="#fff"/>
    <g id="Group_1" data-name="Group 1" transform="translate(37.522 -145)">
      <path id="Path_6" data-name="Path 6" d="M544.22,194.972s-2.019-2.489.636-5.361,7.107-2.046,7.107-2.046a6.241,6.241,0,0,0-1.652,2.009c-.331,1.093-1.433,3.519-2.586,4.321a6.242,6.242,0,0,1-2.122,1.272,4.214,4.214,0,0,1-.8.222s1-4.149,3.208-5.476A6.148,6.148,0,0,0,544.22,194.972Z" transform="translate(-543.485 -187.454)" fill="#fff"/>
      <path id="Path_7" data-name="Path 7" d="M559.68,196.606s.8-3.81,3.208-5.476a26.931,26.931,0,0,1,3.954-2.35,11.39,11.39,0,0,0-1.539,1.868,19.826,19.826,0,0,1-1.67,3.351A6.7,6.7,0,0,1,559.68,196.606Z" transform="translate(-558.364 -188.672)" fill="#fff"/>
    </g>
  </g>
</svg>
