<svg xmlns="http://www.w3.org/2000/svg" width="34" height="34" viewBox="0 0 34 34">
  <g id="Paused_Contract" data-name="Paused Contract" transform="translate(-19655 -3542)">
    <circle id="Ellipse_131" data-name="Ellipse 131" cx="17" cy="17" r="17" transform="translate(19655 3542)" fill="#fee6e6"/>
    <path id="Path_890" data-name="Path 890" d="M108.4,28a10.4,10.4,0,1,0,10.4,10.4A10.4,10.4,0,0,0,108.4,28Zm-1.387,15.544a.3.3,0,0,1-.227.274,3.922,3.922,0,0,1-2.32,0,.3.3,0,0,1-.227-.274V33.263a.3.3,0,0,1,.227-.274,3.922,3.922,0,0,1,2.32,0,.3.3,0,0,1,.227.274Zm5.548,0a.3.3,0,0,1-.227.274,3.922,3.922,0,0,1-2.32,0,.3.3,0,0,1-.227-.274V33.263a.3.3,0,0,1,.227-.274,3.922,3.922,0,0,1,2.32,0,.3.3,0,0,1,.227.274Z" transform="translate(19564 3521)" fill="#f03131"/>
  </g>
</svg>
