<svg xmlns="http://www.w3.org/2000/svg" width="17.671" height="16.739" viewBox="0 0 17.671 16.739">
  <g id="Button_SaveDraft" transform="translate(-10 -35.8)">
    <path id="Path_831" data-name="Path 831" d="M23.252,44.634H14.417a.7.7,0,0,0,0,1.4h8.834a.7.7,0,0,0,0-1.4ZM25.808,35.8H11.861A1.86,1.86,0,0,0,10,37.659V50.678a1.861,1.861,0,0,0,1.861,1.861H25.81a1.861,1.861,0,0,0,1.861-1.861V37.659A1.863,1.863,0,0,0,25.808,35.8ZM15.115,39.985V37.2h7.439v2.789c0,.514.049.465-.465.465H15.58C15.066,40.45,15.115,40.5,15.115,39.985ZM26.273,50.247c0,.77-.126.9-.892.9H12.288c-.766,0-.892-.126-.892-.9V38.092c0-.77.126-.9.892-.9h1.432V40.45a1.4,1.4,0,0,0,1.4,1.4h7.439a1.4,1.4,0,0,0,1.4-1.4V37.2h1.432c.766,0,.892.126.892.9V50.247Zm-3.022-2.823H14.417a.7.7,0,1,0,0,1.4h8.834a.7.7,0,0,0,0-1.4Z" transform="translate(0 0)" fill="#4b4b4b"/>
  </g>
</svg>
