<svg xmlns="http://www.w3.org/2000/svg" width="116" height="70" viewBox="0 0 116 70">
  <g id="Group_981" data-name="Group 981" transform="translate(-1554 -826)">
    <rect id="Rectangle_648" data-name="Rectangle 648" width="116" height="70" transform="translate(1554 826)" fill="#fff"/>
    <g id="Group_979" data-name="Group 979" transform="translate(455.148 608)">
      <g id="Rectangle_646" data-name="Rectangle 646" transform="translate(1104 237)" fill="#fff" stroke="#0089ff" stroke-width="4">
        <rect width="106" height="30" rx="11" stroke="none"/>
        <rect x="2" y="2" width="102" height="26" rx="9" fill="none"/>
      </g>
      <path id="Rectangle_647" data-name="Rectangle 647" d="M0,0H43A11,11,0,0,1,54,11v8A11,11,0,0,1,43,30H0a0,0,0,0,1,0,0V0A0,0,0,0,1,0,0Z" transform="translate(1154 237)" fill="#0089ff"/>
      <g id="Group_977" data-name="Group 977" transform="translate(-18618.129 -53.8)">
        <g id="Path_884" data-name="Path 884" transform="translate(19483.121 150.666)" fill="#0089ff">
          <path d="M 333.8604125976562 185.2071228027344 C 333.4113464355469 185.2071228027344 332.992431640625 184.9659729003906 332.7671203613281 184.5777740478516 L 329.29931640625 178.6100616455078 L 327.1431274414062 181.6212005615234 C 326.9062194824219 181.9520263671875 326.522705078125 182.1494903564453 326.1172485351562 182.1494903564453 C 325.4937438964844 182.1494903564453 324.9684143066406 181.7033996582031 324.8681640625 181.0887756347656 L 322.5241394042969 166.7156829833984 L 322.5228576660156 166.7183380126953 L 322.0158386230469 163.6016540527344 C 321.9562072753906 163.2346954345703 322.059326171875 162.86279296875 322.2987670898438 162.581298828125 C 322.5405883789062 162.2969970703125 322.892822265625 162.1339416503906 323.2651672363281 162.1339416503906 C 323.5628356933594 162.1339416503906 323.8528137207031 162.2410125732422 324.0816650390625 162.4354095458984 L 337.5670776367188 173.8979644775391 C 337.96044921875 174.2327575683594 338.1102905273438 174.7654724121094 337.9492797851562 175.2555541992188 C 337.7882690429688 175.7455444335938 337.3517761230469 176.0855560302734 336.8371887207031 176.1217346191406 L 332.9196472167969 176.3970336914062 L 336.5113220214844 182.3647918701172 C 336.6864013671875 182.6559600830078 336.7369079589844 182.9972991943359 336.6537475585938 183.3262634277344 C 336.570556640625 183.6552886962891 336.3638610839844 183.9316558837891 336.0717163085938 184.1044769287109 L 334.503173828125 185.0313415527344 C 334.308349609375 185.1463928222656 334.0861511230469 185.2071228027344 333.8604125976562 185.2071228027344 Z" stroke="none"/>
          <path d="M 323.2651672363281 163.1339416503906 C 323.1146240234375 163.1339416503906 322.9744262695312 163.2661285400391 323.0028991699219 163.4412231445312 L 323.0032348632812 163.4405212402344 L 325.8551330566406 180.9278106689453 C 325.89306640625 181.1602325439453 326.1930541992188 181.2303771972656 326.330078125 181.0390014648438 L 329.1492309570312 177.10205078125 C 329.2606811523438 176.9463195800781 329.4956970214844 176.9576416015625 329.5918273925781 177.1230926513672 L 333.6320190429688 184.0758209228516 C 333.70556640625 184.2025451660156 333.868408203125 184.2448272705078 333.9944458007812 184.17041015625 L 335.5625915527344 183.2437744140625 C 335.6888427734375 183.1690979003906 335.7300720214844 183.0060729980469 335.654541015625 182.8804626464844 L 331.4430847167969 175.8829345703125 C 331.3414306640625 175.7141265869141 331.4541625976562 175.4974822998047 331.6506652832031 175.4837493896484 L 336.7670288085938 175.1242065429688 C 337.0029907226562 175.1076049804688 337.0995483398438 174.8131866455078 336.91943359375 174.6598968505859 L 323.4342346191406 163.1975402832031 C 323.3823547363281 163.1534576416016 323.3229675292969 163.1339416503906 323.2651672363281 163.1339416503906 M 323.2651672363281 161.1339416503906 C 323.7997741699219 161.1339416503906 324.3196716308594 161.3254852294922 324.7290649414062 161.6732788085938 L 338.2147216796875 173.1360168457031 C 338.9193725585938 173.7357330322266 339.1877136230469 174.6899108886719 338.8992919921875 175.5677032470703 C 338.6109008789062 176.4454040527344 337.8290405273438 177.054443359375 336.9073791503906 177.1192779541016 L 334.6182861328125 177.2801361083984 L 337.3681335449219 181.8491363525391 C 337.6817626953125 182.3707427978516 337.772216796875 182.9821624755859 337.6232299804688 183.5714416503906 C 337.4742126464844 184.1607513427734 337.10400390625 184.6557464599609 336.5807495117188 184.9652252197266 L 335.0119018554688 185.8922576904297 C 334.6630554199219 186.0983123779297 334.2649841308594 186.2071228027344 333.8604125976562 186.2071228027344 C 333.05615234375 186.2071228027344 332.3058166503906 185.775146484375 331.9022216796875 185.0797271728516 L 329.2118225097656 180.4498596191406 L 327.9561767578125 182.2033996582031 C 327.5319519042969 182.7958068847656 326.8445129394531 183.1494903564453 326.1172485351562 183.1494903564453 C 325.0011596679688 183.1494903564453 324.0607604980469 182.3505401611328 323.8812255859375 181.2497711181641 L 322.0450744628906 169.9908752441406 L 322.0425415039062 169.9960479736328 L 321.02880859375 163.7621002197266 C 320.9220275878906 163.1051940917969 321.1072692871094 162.4386596679688 321.5370483398438 161.9333953857422 C 321.9691772460938 161.4253234863281 322.5990600585938 161.1339416503906 323.2651672363281 161.1339416503906 Z" stroke="none" fill="#fff"/>
        </g>
      </g>
      <text id="Sent" transform="translate(1117 257)" fill="#0089ff" font-size="12" font-family="Inter" font-weight="600" letter-spacing="0.001em"><tspan x="0" y="0">Sent</tspan></text>
      <text id="Token" transform="translate(1160 257)" fill="#fff" font-size="12" font-family="Inter" font-weight="600" letter-spacing="0.001em"><tspan x="0" y="0">Token</tspan></text>
    </g>
  </g>
</svg>
