<svg xmlns="http://www.w3.org/2000/svg" width="34" height="34" viewBox="0 0 34 34">
  <g id="Tokenomics" transform="translate(-155 -230)">
    <rect id="Rectangle_619" data-name="Rectangle 619" width="34" height="34" transform="translate(155 230)" fill="none"/>
    <g id="Graph" transform="translate(135.3 210.4)">
      <g id="Group_769" data-name="Group 769" transform="translate(24.8 24.7)">
        <path id="Path_813" data-name="Path 813" d="M35.935,48.781A11.153,11.153,0,0,0,47.07,37.641a.818.818,0,0,0-.821-.822H36.757v-9.5a.818.818,0,0,0-.821-.822,11.141,11.141,0,0,0,0,22.281Zm-.867-20.592v9.451a.818.818,0,0,0,.821.822h9.447A9.444,9.444,0,1,1,35.068,28.189Z" transform="translate(-24.8 -25.781)" fill="#a2a2a2"/>
        <path id="Path_813_-_Outline" data-name="Path 813 - Outline" d="M35.935,48.881a11.241,11.241,0,0,1,0-22.481.923.923,0,0,1,.921.922v9.4h9.392a.923.923,0,0,1,.921.922A11.251,11.251,0,0,1,35.935,48.881Zm0-22.281A11.041,11.041,0,1,0,46.97,37.641a.722.722,0,0,0-.721-.722H36.657v-9.6A.722.722,0,0,0,35.935,26.6Zm0,20.592a9.573,9.573,0,0,1-.877-19.1l.109-.01v9.561a.722.722,0,0,0,.721.722h9.555l-.009.108a9.54,9.54,0,0,1-9.5,8.721ZM34.968,28.3A9.379,9.379,0,1,0,45.227,38.562H35.889a.923.923,0,0,1-.921-.922Z" transform="translate(-24.8 -25.781)" fill="#a2a2a2"/>
        <path id="Path_814" data-name="Path 814" d="M62.585,32.366A7.668,7.668,0,0,0,54.919,24.7a.716.716,0,0,0-.719.719v6.948a.716.716,0,0,0,.719.719h6.948A.692.692,0,0,0,62.585,32.366Zm-6.948-.719v-5.43a6.232,6.232,0,0,1,5.43,5.43Z" transform="translate(-39.676 -24.7)" fill="#a2a2a2"/>
        <path id="Path_814_-_Outline" data-name="Path 814 - Outline" d="M61.927,33.188c-.023,0-.044,0-.065,0H54.919a.82.82,0,0,1-.819-.819V25.419a.82.82,0,0,1,.819-.819,7.775,7.775,0,0,1,7.766,7.766.868.868,0,0,1-.215.569A.722.722,0,0,1,61.927,33.188ZM54.919,24.8a.612.612,0,0,0-.619.619v6.948a.612.612,0,0,0,.619.619h6.958l.051,0h0a.524.524,0,0,0,.393-.185.665.665,0,0,0,.165-.437A7.575,7.575,0,0,0,54.919,24.8Zm6.263,6.948H55.537V26.105l.111.013a6.233,6.233,0,0,1,3.7,1.8,6.446,6.446,0,0,1,1.815,3.716Zm-5.444-.2h5.216A6.246,6.246,0,0,0,59.21,28.06a6.037,6.037,0,0,0-3.473-1.729Z" transform="translate(-39.676 -24.7)" fill="#a2a2a2"/>
      </g>
    </g>
  </g>
</svg>
