<svg xmlns="http://www.w3.org/2000/svg" width="100" height="100" viewBox="0 0 100 100">
  <g id="VerifiedContract" transform="translate(-573 -271)">
    <rect id="Rectangle_608" data-name="Rectangle 608" width="100" height="100" transform="translate(573 271)" fill="none"/>
    <g id="Group_752" data-name="Group 752" transform="translate(-138 -554)">
      <g id="Document" transform="translate(1000 480)">
        <g id="Group_750" data-name="Group 750" transform="translate(-298 -611.362)">
          <path id="Path_789" data-name="Path 789" d="M18,959.362a2.168,2.168,0,0,0-2,2v82a2.078,2.078,0,0,0,2,2H82a2.078,2.078,0,0,0,2-2v-64a2.042,2.042,0,0,0-.594-1.437l-18-18A2.024,2.024,0,0,0,64,959.362Zm2,4H62v16a2.078,2.078,0,0,0,2,2H80v60H20Zm46,2.813,11.188,11.188H66ZM28,993.362a2,2,0,0,0,0,4H72a2,2,0,0,0,0-4Zm0,16a2,2,0,0,0,0,4H72a2,2,0,0,0,0-4Zm0,16a2,2,0,0,0,0,4H72a2,2,0,0,0,0-4Z" fill="#102c78"/>
        </g>
      </g>
      <circle id="Ellipse_101" data-name="Ellipse 101" cx="22" cy="22" r="22" transform="translate(760 879)" fill="#ecf0f7"/>
      <g id="Verified" transform="translate(753.3 565.927)">
        <g id="Group_751" data-name="Group 751" transform="translate(11.918 318.929)">
          <path id="Path_790" data-name="Path 790" d="M34.193,15.589l-1.768-2.015L32.67,10.9a3.9,3.9,0,0,0-3-4.121l-2.614-.584L25.689,3.887a3.889,3.889,0,0,0-4.859-1.569l-2.46,1.046-2.46-1.046a3.883,3.883,0,0,0-4.859,1.569L9.68,6.193l-2.614.584a3.9,3.9,0,0,0-3,4.121l.246,2.676L2.545,15.589a3.883,3.883,0,0,0,0,5.105l1.768,2.015-.246,2.676a3.9,3.9,0,0,0,3,4.121l2.614.584L11.049,32.4a3.894,3.894,0,0,0,3.337,1.895,3.815,3.815,0,0,0,1.522-.323l2.46-1.046,2.46,1.046A3.883,3.883,0,0,0,25.689,32.4l1.369-2.307,2.614-.584a3.9,3.9,0,0,0,3-4.121l-.246-2.676L34.193,20.7A3.883,3.883,0,0,0,34.193,15.589ZM18.369,29.86A11.718,11.718,0,1,1,30.087,18.142,11.718,11.718,0,0,1,18.369,29.86Zm0-21.9a10.18,10.18,0,1,0,10.18,10.18,10.18,10.18,0,0,0-10.18-10.18ZM22.8,15.9l-5.136,6.059a.76.76,0,0,1-.584.277h-.015a.769.769,0,0,1-.6-.308l-2.537-3.337a.769.769,0,0,1,1.215-.938l1.968,2.583,4.506-5.321A.77.77,0,1,1,22.8,15.9Z" transform="translate(-1.588 -2.003)" fill="#0089ff"/>
        </g>
      </g>
    </g>
  </g>
</svg>
