<svg xmlns="http://www.w3.org/2000/svg" width="28" height="28" viewBox="0 0 28 28">
  <g id="Group_973" data-name="Group 973" transform="translate(-1873 -14)">
    <ellipse id="Ellipse_97" data-name="Ellipse 97" cx="14" cy="14" rx="14" ry="14" transform="translate(1873 14)" fill="#7b9cf5"/>
    <path id="Icon_awesome-wallet" data-name="Icon awesome-wallet" d="M13.847,5.132H2.4a.48.48,0,1,1,0-.961H13.931a.48.48,0,0,0,.48-.48A1.441,1.441,0,0,0,12.971,2.25H1.922A1.921,1.921,0,0,0,0,4.172v9.608A1.921,1.921,0,0,0,1.922,15.7H13.847a1.486,1.486,0,0,0,1.525-1.441V6.574A1.486,1.486,0,0,0,13.847,5.132ZM12.49,11.377a.961.961,0,1,1,.961-.961A.961.961,0,0,1,12.49,11.377Z" transform="translate(1879.313 19.024)" fill="#324988"/>
  </g>
</svg>
