<svg xmlns="http://www.w3.org/2000/svg" width="26" height="26" viewBox="0 0 26 26">
  <g id="Website_active" transform="translate(-797 -131)">
    <g id="Rectangle_592" data-name="Rectangle 592" transform="translate(797 131)" fill="#fff" stroke="#f0f0f0" stroke-width="1">
      <rect width="26" height="26" rx="2" stroke="none"/>
      <rect x="0.5" y="0.5" width="25" height="25" rx="1.5" fill="none"/>
    </g>
    <g id="Globe" transform="translate(803 137)">
      <g id="background">
        <rect id="Rectangle_566" data-name="Rectangle 566" width="15" height="15" fill="none"/>
      </g>
      <g id="earth">
        <path id="Path_848" data-name="Path 848" d="M7.5,0A7.5,7.5,0,1,0,15,7.5,7.5,7.5,0,0,0,7.5,0ZM.962,7.969H3.3a10.639,10.639,0,0,0,.338,2.343H1.581A6.538,6.538,0,0,1,.962,7.969ZM7.969,3.751V1.037a6.782,6.782,0,0,1,2.078,2.715H7.969Zm2.423.937a9.663,9.663,0,0,1,.373,2.344h-2.8V4.688ZM6.818,1.2c.082-.068.151-.121.213-.167V3.751H4.951a7.464,7.464,0,0,1,.817-1.422A6.447,6.447,0,0,1,6.818,1.2Zm.213,3.486V7.032H4.238a9.549,9.549,0,0,1,.377-2.344ZM3.3,7.032H.962A6.532,6.532,0,0,1,1.58,4.688H3.638A10.651,10.651,0,0,0,3.3,7.032Zm.935.937h2.8v2.343H4.608A9.655,9.655,0,0,1,4.235,7.969Zm2.8,3.281v2.714A6.777,6.777,0,0,1,4.953,11.25ZM8.181,13.8c-.081.068-.151.12-.212.167V11.251h2.08a7.444,7.444,0,0,1-.817,1.421A6.44,6.44,0,0,1,8.181,13.8Zm-.212-3.486V7.969h2.793a9.573,9.573,0,0,1-.377,2.343ZM11.7,7.969h2.337a6.531,6.531,0,0,1-.619,2.343H11.363A10.7,10.7,0,0,0,11.7,7.969Zm0-.937a10.646,10.646,0,0,0-.338-2.344h2.057a6.523,6.523,0,0,1,.618,2.344Zm1.178-3.281H11.055A8.325,8.325,0,0,0,9.594,1.288,6.573,6.573,0,0,1,12.878,3.751ZM5.405,1.288a8.337,8.337,0,0,0-1.46,2.463H2.122A6.578,6.578,0,0,1,5.405,1.288ZM2.123,11.25H3.945A8.323,8.323,0,0,0,5.4,13.711,6.572,6.572,0,0,1,2.123,11.25ZM9.6,13.711a8.333,8.333,0,0,0,1.459-2.461h1.822A6.571,6.571,0,0,1,9.6,13.711Z" fill="#1f1f1f"/>
      </g>
    </g>
  </g>
</svg>
