<svg xmlns="http://www.w3.org/2000/svg" width="34" height="34" viewBox="0 0 34 34">
  <g id="Wrong_Network_Selected" data-name="Wrong Network Selected" transform="translate(-19705 -3711)">
    <circle id="Ellipse_131" data-name="Ellipse 131" cx="17" cy="17" r="17" transform="translate(19705 3711)" fill="#fee6e6"/>
    <g id="Group_979" data-name="Group 979" transform="translate(0 1.168)">
      <path id="Path_887" data-name="Path 887" d="M323.41,350.54a1.943,1.943,0,1,1-1.943-1.943,1.943,1.943,0,0,1,1.943,1.943" transform="translate(19400.531 3380.66)" fill="#f03131"/>
      <path id="Path_888" data-name="Path 888" d="M197.78,218.9a7.939,7.939,0,0,1,7.939,7.937h2.431a10.369,10.369,0,0,0-20.738,0h2.431a7.94,7.94,0,0,1,7.936-7.937Z" transform="translate(19524.219 3504.363)" fill="#f03131"/>
      <path id="Path_889" data-name="Path 889" d="M259.6,284.952a3.725,3.725,0,0,1,3.726,3.726h2.431a6.157,6.157,0,0,0-12.314,0h2.431a3.725,3.725,0,0,1,3.726-3.726Z" transform="translate(19462.396 3442.523)" fill="#f03131"/>
    </g>
  </g>
</svg>
