<svg xmlns="http://www.w3.org/2000/svg" width="30" height="30" viewBox="0 0 30 30">
  <g id="About_Active" transform="translate(-1097 -136)">
    <rect id="Rectangle_603" data-name="Rectangle 603" width="30" height="30" transform="translate(1097 136)" fill="none"/>
    <g id="Leaves" transform="translate(1100.039 137.301)">
      <g id="Group_14" data-name="Group 14" transform="translate(0.962 4.699)">
        <path id="Path_10" data-name="Path 10" d="M8.769,15.391a15.163,15.163,0,0,1,2.375,4.792h.167c-.333-2.917-.333-4.875-1.917-6.917a6.4,6.4,0,0,0-3.375-2.333,15.855,15.855,0,0,0-5.042-.5,19.48,19.48,0,0,0,1.25,5.5c2,3.958,5.667,3.125,7.792,3.042-2.75-5.083-6.458-6.292-6.458-6.333A6.329,6.329,0,0,1,8.769,15.391Z" transform="translate(-0.962 -8.016)" fill="#fff"/>
        <g id="Group_13" data-name="Group 13" transform="translate(11.497)">
          <path id="Path_11" data-name="Path 11" d="M34.232,12.812c-.542,6.371-5.5,7.242-8.125,8.2.917-8.387,4.958-11.962,4.917-12.008-1.333.825-3.833,1.7-5.083,6.463a24.461,24.461,0,0,0-.625,7.792c-.083,0-.125.046-.208.046-.375-1.65-.833-3.254-1.125-4.9-.833-4.354.708-8.342,3.25-10.4A18.942,18.942,0,0,1,33.19,4.7,32.972,32.972,0,0,1,34.232,12.812Z" transform="translate(-23.754 -4.699)" fill="#fff"/>
        </g>
      </g>
    </g>
  </g>
</svg>
