<svg xmlns="http://www.w3.org/2000/svg" width="31" height="15" viewBox="0 0 31 15">
  <g id="Group_987" data-name="Group 987" transform="translate(-168 -24)">
    <path id="Path_888" data-name="Path 888" d="M.8,0V-7.273H3.462a2.858,2.858,0,0,1,1.282.254,1.764,1.764,0,0,1,.76.685,1.889,1.889,0,0,1,.252.971,1.6,1.6,0,0,1-.167.765,1.361,1.361,0,0,1-.446.5,1.969,1.969,0,0,1-.613.272v.071a1.469,1.469,0,0,1,.708.233,1.7,1.7,0,0,1,.574.609,1.891,1.891,0,0,1,.227.959,1.929,1.929,0,0,1-.261,1,1.788,1.788,0,0,1-.8.7A3.249,3.249,0,0,1,3.587,0ZM1.9-.941H3.48a1.678,1.678,0,0,0,1.129-.305A.983.983,0,0,0,4.95-2.01a1.2,1.2,0,0,0-.174-.632,1.246,1.246,0,0,0-.5-.458,1.6,1.6,0,0,0-.762-.17H1.9Zm0-3.185h1.47a1.522,1.522,0,0,0,.666-.142,1.173,1.173,0,0,0,.472-.4,1.054,1.054,0,0,0,.176-.609,1.01,1.01,0,0,0-.316-.756,1.349,1.349,0,0,0-.969-.305H1.9ZM7.34,0V-7.273H11.9v.945H8.438v2.216h3.224v.941H8.438V-.945h3.5V0Zm5.671-6.328v-.945H18.64v.945H16.371V0H15.277V-6.328ZM19.627,0H18.462L21.08-7.273h1.268L24.964,0H23.8L21.744-5.952h-.057Zm.2-2.848H23.6v.923H19.822Z" transform="translate(170.201 35)" fill="#8ca6f0"/>
    <g id="Rectangle_653" data-name="Rectangle 653" transform="translate(168 24)" fill="none" stroke="#8ca6f0" stroke-width="1">
      <rect width="31" height="15" rx="2" stroke="none"/>
      <rect x="0.5" y="0.5" width="30" height="14" rx="1.5" fill="none"/>
    </g>
  </g>
</svg>
