<svg xmlns="http://www.w3.org/2000/svg" width="80" height="80" viewBox="0 0 80 80">
  <g id="Burn_Contract" transform="translate(-1545 -213)">
    <rect id="Rectangle_632" data-name="Rectangle 632" width="80" height="80" transform="translate(1545 213)" fill="none"/>
    <g id="Burn" transform="translate(1673.716 35.006)">
      <path id="Path_823" data-name="Path 823" d="M60.823,23.146c-6.093,1.542-8.443,3.891-10.131,8.883.734-5.212.44-19.6-17.987-26.429,3.3,9.617,3.23,24.667-2.349,29.146,1.762-5.947-2.937-11.086-7.488-14.83C25.51,35.26,6.79,37.976,13.911,57.358c2.129,5.726,7.195,10.131,13.435,12.774C23.455,59.854,32.558,45.9,39.092,42.968c-1.982,4.919,2.276,12.26,4.919,13.949-1.321-4.185.587-6.314,1.615-7.341C46.14,57.284,57.3,61.028,52.894,71.6c6.754-2.423,12.774-7.562,14.61-17.326C69.706,42.307,58.033,33.057,60.823,23.146Z" transform="translate(-129 179.394)" fill="red"/>
    </g>
  </g>
</svg>
