<svg xmlns="http://www.w3.org/2000/svg" width="44" height="44" viewBox="0 0 44 44">
  <g id="Burnable" transform="translate(-912 -231)">
    <rect id="Rectangle_627" data-name="Rectangle 627" width="44" height="44" transform="translate(912 231)" fill="none"/>
    <g id="Burn" transform="translate(1034.716 49.006)">
      <path id="Path_823" data-name="Path 823" d="M39.867,15.571c-3.463.876-4.8,2.211-5.757,5.048.417-2.962.25-11.139-10.221-15.019,1.877,5.465,1.836,14.018-1.335,16.563,1-3.379-1.669-6.3-4.255-8.427C19.8,22.455,9.162,24,13.208,35.012c1.21,3.254,4.088,5.757,7.635,7.259C18.632,36.43,23.805,28.5,27.518,26.835c-1.126,2.8,1.293,6.967,2.8,7.927a3.72,3.72,0,0,1,.918-4.172c.292,4.381,6.633,6.508,4.13,12.516a12.3,12.3,0,0,0,8.3-9.846C44.915,26.46,38.282,21.2,39.867,15.571Z" transform="translate(-129 179.394)" fill="red"/>
    </g>
  </g>
</svg>
