<svg xmlns="http://www.w3.org/2000/svg" width="34" height="34" viewBox="0 0 34 34">
  <g id="Contract_Details" transform="translate(-109 -230)">
    <rect id="Rectangle_618" data-name="Rectangle 618" width="34" height="34" transform="translate(109 230)" fill="none"/>
    <g id="note" transform="translate(108.7 224.4)">
      <g id="Group_767" data-name="Group 767" transform="translate(2.5 10.8)">
        <path id="Path_807" data-name="Path 807" d="M27.534,25.4H17.87a.67.67,0,1,0,0,1.34h9.664a.665.665,0,0,0,.67-.67A.682.682,0,0,0,27.534,25.4Z" transform="translate(-12.119 -20.88)" fill="#a2a2a2"/>
        <path id="Path_807_-_Outline" data-name="Path 807 - Outline" d="M17.87,25.2h9.664a.882.882,0,0,1,.87.87.861.861,0,0,1-.87.87H17.87a.87.87,0,1,1,0-1.74Zm9.664,1.34a.465.465,0,0,0,.47-.47.482.482,0,0,0-.47-.47H17.87a.47.47,0,1,0,0,.94Z" transform="translate(-12.119 -20.88)" fill="#a2a2a2"/>
        <path id="Path_808" data-name="Path 808" d="M28.2,40.67a.665.665,0,0,0-.67-.67H17.87a.67.67,0,1,0,0,1.34h9.664A.665.665,0,0,0,28.2,40.67Z" transform="translate(-12.119 -30.961)" fill="#a2a2a2"/>
        <path id="Path_808_-_Outline" data-name="Path 808 - Outline" d="M17.87,39.8h9.664a.87.87,0,1,1,0,1.74H17.87a.87.87,0,0,1,0-1.74Zm9.664,1.34a.471.471,0,0,0,.331-.133.472.472,0,0,0-.331-.807H17.87a.47.47,0,0,0,0,.94Z" transform="translate(-12.119 -30.961)" fill="#a2a2a2"/>
        <path id="Path_809" data-name="Path 809" d="M25.627,55.37l.67-.67H17.87a.682.682,0,0,0-.67.67.665.665,0,0,0,.67.67h7.293A2.577,2.577,0,0,1,25.627,55.37Z" transform="translate(-12.279 -41.11)" fill="#a2a2a2"/>
        <path id="Path_809_-_Outline" data-name="Path 809 - Outline" d="M17.87,54.5h8.91l-1.011,1.011a2.369,2.369,0,0,0-.426.618l-.055.111H17.87a.861.861,0,0,1-.87-.87A.882.882,0,0,1,17.87,54.5Zm7.944.4H17.87a.482.482,0,0,0-.47.47.465.465,0,0,0,.47.47h7.172a2.65,2.65,0,0,1,.444-.611Z" transform="translate(-12.279 -41.11)" fill="#a2a2a2"/>
        <path id="Path_810" data-name="Path 810" d="M17.87,69.4a.67.67,0,1,0,0,1.34h7.087a2.066,2.066,0,0,1-.155-.954l.026-.361H17.87Z" transform="translate(-12.37 -51.26)" fill="#a2a2a2"/>
        <path id="Path_810_-_Outline" data-name="Path 810 - Outline" d="M17.87,69.2h.2v.026h6.973L25,69.8a1.877,1.877,0,0,0,.14.862l.115.277H17.87a.87.87,0,0,1,0-1.74Zm6.743.426h-6.9a.471.471,0,0,0,.157.914h6.807a2.217,2.217,0,0,1-.074-.77Z" transform="translate(-12.37 -51.26)" fill="#a2a2a2"/>
        <path id="Path_811" data-name="Path 811" d="M24.008,31.341v1.9H4.14V12.361H24.008v6.7l1.64-1.561v-5.48A1.26,1.26,0,0,0,24.362,10.8H3.786A1.26,1.26,0,0,0,2.5,12.024V33.576A1.241,1.241,0,0,0,3.786,34.8H24.394a1.26,1.26,0,0,0,1.286-1.224V29.81L24.2,31.218A1,1,0,0,1,24.008,31.341Z" transform="translate(-2.5 -10.8)" fill="#a2a2a2"/>
        <path id="Path_811_-_Outline" data-name="Path 811 - Outline" d="M24.394,35H3.786A1.441,1.441,0,0,1,2.3,33.576V12.024A1.458,1.458,0,0,1,3.786,10.6H24.362a1.458,1.458,0,0,1,1.486,1.424V17.59l-2.04,1.942V12.561H4.34V33.039H23.808V31.215l.114-.054a.9.9,0,0,0,.142-.088l1.816-1.729v4.232A1.458,1.458,0,0,1,24.394,35ZM3.786,11A1.058,1.058,0,0,0,2.7,12.024V33.576A1.045,1.045,0,0,0,3.786,34.6H24.394a1.058,1.058,0,0,0,1.086-1.024v-3.3l-1.141,1.086a.861.861,0,0,1-.131.095v1.981H3.94V12.161H24.208V18.6l1.24-1.18V12.024A1.058,1.058,0,0,0,24.362,11Z" transform="translate(-2.5 -10.8)" fill="#a2a2a2"/>
        <path id="Path_812" data-name="Path 812" d="M63.259,31.939l-1.83-1.83a1.032,1.032,0,0,0-.747-.309h0a1.032,1.032,0,0,0-.747.309l-7.706,7.706a1.083,1.083,0,0,0-.309.67l-.129,1.959a1.1,1.1,0,0,0,.309.825,1.032,1.032,0,0,0,.747.309h.077l1.959-.129a1.083,1.083,0,0,0,.67-.309l7.706-7.706a1.058,1.058,0,0,0,0-1.495Zm-8.556,8.2-1.546.1.1-1.546,5.7-5.7,1.469,1.469Zm6.623-6.623-1.469-1.469.825-.825,1.469,1.469Z" transform="translate(-34.486 -22.698)" fill="#a2a2a2"/>
        <path id="Path_812_-_Outline" data-name="Path 812 - Outline" d="M60.682,29.6a1.232,1.232,0,0,1,.889.368L63.4,31.8a1.258,1.258,0,0,1,0,1.778l-7.706,7.706a1.284,1.284,0,0,1-.792.367H54.9l-1.972.129h-.077a1.232,1.232,0,0,1-.889-.368L51.95,41.4a1.294,1.294,0,0,1-.359-.974l.129-1.962a1.284,1.284,0,0,1,.367-.792l7.706-7.706A1.232,1.232,0,0,1,60.682,29.6ZM54.866,41.249A.888.888,0,0,0,55.412,41l7.706-7.706a.858.858,0,0,0,0-1.212l-1.83-1.83a.858.858,0,0,0-1.212,0L52.37,37.956a.888.888,0,0,0-.251.545l-.129,1.955a.919.919,0,0,0,.255.674.829.829,0,0,0,.6.247h.071Zm5.815-10.315,1.752,1.752-1.108,1.108-1.752-1.752Zm1.186,1.752L60.682,31.5l-.542.542,1.186,1.186Zm-2.913.026,1.752,1.752L54.79,40.329l-1.849.123.123-1.849Zm1.185,1.751-1.185-1.185-5.5,5.5-.083,1.243,1.244-.083Z" transform="translate(-34.486 -22.698)" fill="#a2a2a2"/>
      </g>
    </g>
  </g>
</svg>
