<svg xmlns="http://www.w3.org/2000/svg" width="30" height="30" viewBox="0 0 30 30">
  <g id="CreateContract_Inactive" transform="translate(-1137 -98)">
    <rect id="Rectangle_600" data-name="Rectangle 600" width="30" height="30" transform="translate(1137 98)" fill="none"/>
    <g id="Create" transform="translate(1119 80)">
      <g id="Group_747" data-name="Group 747" transform="translate(22 22)">
        <g id="Group_746" data-name="Group 746">
          <path id="Path_786" data-name="Path 786" d="M33,44A11,11,0,1,1,44,33,11,11,0,0,1,33,44ZM31.625,31.821H26.714a.393.393,0,0,0-.393.393v1.571a.393.393,0,0,0,.393.393h4.911a.2.2,0,0,1,.2.2v4.911a.393.393,0,0,0,.393.393h1.571a.393.393,0,0,0,.393-.393V34.375a.2.2,0,0,1,.2-.2h4.911a.393.393,0,0,0,.393-.393V32.214a.393.393,0,0,0-.393-.393H34.375a.2.2,0,0,1-.2-.2V26.714a.393.393,0,0,0-.393-.393H32.214a.393.393,0,0,0-.393.393v4.911A.2.2,0,0,1,31.625,31.821Z" transform="translate(-22 -22)" fill="#8ca6f0"/>
        </g>
      </g>
    </g>
  </g>
</svg>
