<svg xmlns="http://www.w3.org/2000/svg" width="30" height="30" viewBox="0 0 30 30">
  <g id="DeployContract_Active" transform="translate(-1176 -136)">
    <rect id="Rectangle_605" data-name="Rectangle 605" width="30" height="30" transform="translate(1176 136)" fill="none"/>
    <g id="Rocket" transform="translate(1176.881 139.043)">
      <path id="Path_784" data-name="Path 784" d="M12.224,10.922l2.717,1.125a15.665,15.665,0,0,0-.731,2.379l-.1.468L18,18.788l.468-.1a15.7,15.7,0,0,0,2.382-.73l1.126,2.714a.176.176,0,0,0,.288.056l1.7-1.7a2.806,2.806,0,0,0,.82-2.127l-.061-1.093c3.152-2.326,6.342-6.4,7.21-13.521A1.17,1.17,0,0,0,30.623.967c-7.121.875-11.206,4.064-13.533,7.2L16,8.115a2.812,2.812,0,0,0-2.129.807l-1.7,1.7a.175.175,0,0,0,.056.3ZM23.146,6.776a2.1,2.1,0,1,1-.62,1.492A2.109,2.109,0,0,1,23.146,6.776Z" transform="translate(-6.829 0)" fill="#fff"/>
      <path id="Path_785" data-name="Path 785" d="M4.877,70.016a2.835,2.835,0,0,0-1.44-.115.263.263,0,0,1-.293-.367c.511-1.1,1.868-3.311,4.324-1.525a.122.122,0,0,1,0,.182,2.667,2.667,0,0,0-1.016,2.185.194.194,0,0,0,.187.187,2.665,2.665,0,0,0,2.185-.994.122.122,0,0,1,.19,0,2.317,2.317,0,0,1,.24,3.011,2.7,2.7,0,0,1-1.81.96c-1.008.108-2.871.437-3.632,1.306a.262.262,0,0,1-.451-.1A4.147,4.147,0,0,1,4.877,70.016Z" transform="translate(0 -51.201)" fill="#fff"/>
    </g>
  </g>
</svg>
