<svg xmlns="http://www.w3.org/2000/svg" width="34" height="34" viewBox="0 0 34 34">
  <g id="Features_Active" transform="translate(-404 -230)">
    <rect id="Rectangle_624" data-name="Rectangle 624" width="34" height="34" transform="translate(404 230)" fill="none"/>
    <g id="Star" transform="translate(390.437 214.109)">
      <path id="Path_815" data-name="Path 815" d="M37.667,43.991A.8.8,0,0,1,37.3,43.9l-6.581-3.46L24.132,43.9a.8.8,0,0,1-1.16-.843l1.257-7.328L18.9,30.538a.8.8,0,0,1,.444-1.364L26.706,28.1,30,21.437a.8.8,0,0,1,1.434,0L34.722,28.1l7.358,1.069a.8.8,0,0,1,.444,1.364L37.2,35.728l1.257,7.328a.8.8,0,0,1-.788.935Zm-6.953-5.255a.8.8,0,0,1,.372.092l5.519,2.9-1.054-6.145a.8.8,0,0,1,.23-.708l4.465-4.352-6.171-.9a.8.8,0,0,1-.6-.437L30.714,23.6l-2.76,5.592a.8.8,0,0,1-.6.437l-6.171.9,4.465,4.352a.8.8,0,0,1,.23.708l-1.054,6.145,5.519-2.9A.8.8,0,0,1,30.714,38.736Z" transform="translate(0 0)" fill="#0089ff"/>
      <path id="Path_815_-_Outline" data-name="Path 815 - Outline" d="M23.761,44.091a.9.9,0,0,1-.887-1.052l1.248-7.276-5.286-5.154a.894.894,0,0,1-.228-.922.906.906,0,0,1,.727-.612l7.306-1.062,3.267-6.62a.9.9,0,0,1,.807-.5.906.906,0,0,1,.807.5l3.267,6.62,7.306,1.062a.906.906,0,0,1,.726.612.9.9,0,0,1-.227.922l-5.287,5.154,1.248,7.276a.9.9,0,0,1-.887,1.052.9.9,0,0,1-.419-.1l-6.535-3.435-6.535,3.435A.9.9,0,0,1,23.761,44.091Zm6.953-23a.7.7,0,0,0-.628.39L26.773,28.2l-7.41,1.077a.7.7,0,0,0-.565.476.7.7,0,0,0,.177.717l5.362,5.227-1.266,7.38a.7.7,0,0,0,1.015.738l6.628-3.484,6.628,3.484a.7.7,0,0,0,.326.08.7.7,0,0,0,.69-.818l-1.266-7.38,5.363-5.227a.7.7,0,0,0,.177-.717.7.7,0,0,0-.565-.476L34.656,28.2l-3.314-6.715A.7.7,0,0,0,30.714,21.091Zm6.024,20.821-5.7-3a.711.711,0,0,0-.651,0l-5.7,3,1.088-6.345a.7.7,0,0,0-.2-.619l-4.61-4.494,6.371-.926a.7.7,0,0,0,.527-.383l2.849-5.773,2.849,5.773a.7.7,0,0,0,.527.383l6.371.926-4.61,4.494a.7.7,0,0,0-.2.619Zm-6.024-3.276a.9.9,0,0,1,.419.1l5.34,2.807L35.452,35.6a.9.9,0,0,1,.259-.8l4.32-4.211-5.97-.868a.9.9,0,0,1-.677-.492l-2.67-5.41-2.67,5.41a.9.9,0,0,1-.677.492l-5.97.868,4.32,4.211a.9.9,0,0,1,.259.8l-1.02,5.946,5.34-2.807A.9.9,0,0,1,30.714,38.636Z" transform="translate(0 0)" fill="#0089ff"/>
    </g>
  </g>
</svg>
