<svg xmlns="http://www.w3.org/2000/svg" width="116" height="70" viewBox="0 0 116 70">
  <g id="Group_982" data-name="Group 982" transform="translate(-1685 -826)">
    <rect id="Rectangle_650" data-name="Rectangle 650" width="116" height="70" transform="translate(1685 826)" fill="#fff"/>
    <g id="Group_976" data-name="Group 976" transform="translate(582.729 357)">
      <path id="Path_877" data-name="Path 877" d="M184.391,43.512H150.063a7.262,7.262,0,0,0-7.261,7.262V92.006a7.262,7.262,0,0,0,7.261,7.262h34.328a7.262,7.262,0,0,0,7.261-7.262V50.774a7.262,7.262,0,0,0-7.261-7.262Zm3.3,48.495a3.3,3.3,0,0,1-3.3,3.3H150.063a3.3,3.3,0,0,1-3.3-3.3V50.775a3.3,3.3,0,0,1,3.3-3.3h34.328a3.3,3.3,0,0,1,3.3,3.3Z" transform="translate(993.469 432.488)" fill="#0089ff"/>
      <path id="Path_878" data-name="Path 878" d="M211.888,266h-3.268a1.981,1.981,0,0,0,0,3.961h3.268a1.981,1.981,0,1,0,0-3.961Z" transform="translate(937.156 236.228)" fill="#0089ff"/>
      <path id="Path_879" data-name="Path 879" d="M316.958,266H297.61a1.981,1.981,0,0,0,0,3.961h19.348a1.981,1.981,0,1,0,0-3.961Z" transform="translate(858.657 236.228)" fill="#0089ff"/>
      <path id="Path_880" data-name="Path 880" d="M211.888,165.2h-3.268a1.981,1.981,0,0,0,0,3.961h3.268a1.981,1.981,0,1,0,0-3.961Z" transform="translate(937.156 325.145)" fill="#0089ff"/>
      <path id="Path_881" data-name="Path 881" d="M316.958,165.2H297.61a1.981,1.981,0,1,0,0,3.961h19.348a1.981,1.981,0,1,0,0-3.961Z" transform="translate(858.657 325.145)" fill="#0089ff"/>
      <path id="Path_882" data-name="Path 882" d="M211.888,366.8h-3.268a1.98,1.98,0,1,0,0,3.961h3.268a1.98,1.98,0,1,0,0-3.961Z" transform="translate(937.156 147.31)" fill="#0089ff"/>
      <path id="Path_883" data-name="Path 883" d="M316.958,366.8H297.61a1.98,1.98,0,1,0,0,3.961h19.348a1.98,1.98,0,1,0,0-3.961Z" transform="translate(858.657 147.31)" fill="#0089ff"/>
    </g>
  </g>
</svg>
