<svg xmlns="http://www.w3.org/2000/svg" width="15" height="15" viewBox="0 0 15 15">
  <g id="Info" transform="translate(-639 -482)">
    <g id="Ellipse_105" data-name="Ellipse 105" transform="translate(639 482)" fill="#fff" stroke="#d8d8d8" stroke-width="1">
      <circle cx="7.5" cy="7.5" r="7.5" stroke="none"/>
      <circle cx="7.5" cy="7.5" r="7" fill="none"/>
    </g>
    <path id="Path_794" data-name="Path 794" d="M-2.058-6.382v-.069a3.753,3.753,0,0,1,.137-1.078,1.633,1.633,0,0,1,.37-.648,2.848,2.848,0,0,1,.579-.451A2.378,2.378,0,0,0-.58-8.938,1.311,1.311,0,0,0-.3-9.331a1.164,1.164,0,0,0,.1-.491,1.01,1.01,0,0,0-.153-.561,1.035,1.035,0,0,0-.406-.366,1.218,1.218,0,0,0-.562-.129,1.273,1.273,0,0,0-.535.116,1.018,1.018,0,0,0-.422.362,1.25,1.25,0,0,0-.193.632H-3.58a2.086,2.086,0,0,1,.331-1.109,1.939,1.939,0,0,1,.81-.686A2.628,2.628,0,0,1-1.322-11.8a2.606,2.606,0,0,1,1.172.249,1.885,1.885,0,0,1,.781.7A1.921,1.921,0,0,1,.909-9.811a2,2,0,0,1-.127.734A1.836,1.836,0,0,1,.42-8.5a2.523,2.523,0,0,1-.562.451,2.41,2.41,0,0,0-.5.4,1.263,1.263,0,0,0-.278.491,2.574,2.574,0,0,0-.095.7v.069Zm.55,2.213a.7.7,0,0,1-.513-.213A.7.7,0,0,1-2.236-4.9a.7.7,0,0,1,.215-.511.7.7,0,0,1,.513-.213A.705.705,0,0,1-1-5.408.692.692,0,0,1-.78-4.9a.694.694,0,0,1-.1.366.763.763,0,0,1-.264.264A.694.694,0,0,1-1.508-4.169Z" transform="translate(648.065 497.358)" fill="#a2a2a2"/>
  </g>
</svg>
