<svg xmlns="http://www.w3.org/2000/svg" width="50" height="50" viewBox="0 0 50 50">
  <g id="Login" transform="translate(-1111 -290)">
    <rect id="Rectangle_612" data-name="Rectangle 612" width="50" height="50" transform="translate(1111 290)" fill="none"/>
    <g id="Login-2" data-name="Login" transform="translate(1105.6 290)">
      <path id="Path_797" data-name="Path 797" d="M17.917,44.742a3.258,3.258,0,1,1-3.258-3.258A3.258,3.258,0,0,1,17.917,44.742Zm6.91-3.258a3.274,3.274,0,1,1-.014,0Zm10.168,0a3.274,3.274,0,1,1-.014,0Zm10.168,0a3.274,3.274,0,1,1-.014,0ZM39.91,34.962H19.833a3.488,3.488,0,0,1-3.484-3.484l.067-12.66a3.493,3.493,0,0,1,2.664-3.4V12.978h0v-.206a10.676,10.676,0,0,1,3.268-7.715A10.786,10.786,0,0,1,29.9,2h.244A10.973,10.973,0,0,1,40.6,12.987v2.4a3.488,3.488,0,0,1,2.841,3.426l-.067,12.66a3.488,3.488,0,0,1-3.464,3.493ZM33.154,24.9A3.258,3.258,0,1,0,29.9,28.162,3.258,3.258,0,0,0,33.154,24.9Zm1.39-11.979a4.733,4.733,0,0,0-4.725-4.854,4.629,4.629,0,0,0-3.11,1.2,4.7,4.7,0,0,0-1.567,3.5V15.33h9.4Z" transform="translate(0 0)" fill="#0089ff"/>
    </g>
  </g>
</svg>
