<svg xmlns="http://www.w3.org/2000/svg" width="30" height="30" viewBox="0 0 30 30">
  <g id="ManageContract_Active" transform="translate(-1216 -136)">
    <rect id="Rectangle_606" data-name="Rectangle 606" width="30" height="30" transform="translate(1216 136)" fill="none"/>
    <g id="Group_960" data-name="Group 960" transform="translate(914.668 -253)">
      <path id="Path_787" data-name="Path 787" d="M24.095,23.423a.772.772,0,0,0-.43.338l-1.118,1.874a.743.743,0,0,0-.09.531,3.125,3.125,0,0,0,.68,1.426v.245a2.914,2.914,0,0,0-.65,1.247H7.85a.522.522,0,0,1-.392-.175.5.5,0,0,1-.12-.4,9.907,9.907,0,0,1,2.689-5.587c1.748-1.7,4.245-2.526,7.428-2.471,3.373-.056,5.955.882,7.714,2.8a3.891,3.891,0,0,0-1.073.178ZM17.442,18.4a5.388,5.388,0,1,0-5.514-5.387A5.451,5.451,0,0,0,17.442,18.4Z" transform="translate(297 384.373)" fill="#fff"/>
      <path id="Path_788" data-name="Path 788" d="M32.65,29.465a2.26,2.26,0,0,1,.176.393l-.791,1.355a2.048,2.048,0,0,1-.423.041.776.776,0,0,0-.848-.052l-.92.527a.776.776,0,0,0-.388.755,1.823,1.823,0,0,1-.253.346l-1.566-.005a2.245,2.245,0,0,1-.249-.352.776.776,0,0,0-.377-.76l-.92-.533a.776.776,0,0,0-.847.041,2.029,2.029,0,0,1-.424-.041l-.781-1.36a2.218,2.218,0,0,1,.181-.393.766.766,0,0,0,.465-.708l.005-1.06a.765.765,0,0,0-.46-.714,2.219,2.219,0,0,1-.176-.388l.791-1.355a1.746,1.746,0,0,1,.424-.041.776.776,0,0,0,.848.052l.925-.527a.779.779,0,0,0,.383-.755,2.036,2.036,0,0,1,.253-.352l1.567.01a1.955,1.955,0,0,1,.248.346.776.776,0,0,0,.377.76l.92.538a.776.776,0,0,0,.848-.047,1.806,1.806,0,0,1,.424.047l.78,1.36a1.984,1.984,0,0,1-.181.388.771.771,0,0,0-.465.708l0,1.065A.757.757,0,0,0,32.65,29.465ZM29.14,27a1.391,1.391,0,1,0,.5,1.9,1.391,1.391,0,0,0-.5-1.9Z" transform="translate(296.49 383.869)" fill="#fff"/>
    </g>
  </g>
</svg>
