<svg xmlns="http://www.w3.org/2000/svg" width="23.158" height="19.649" viewBox="0 0 23.158 19.649">
  <g id="menu" transform="translate(269 -204)">
    <path id="Path_308" data-name="Path 308" d="M39.1,24.569H18.053a1.31,1.31,0,0,1,0-2.569H39.1a1.31,1.31,0,0,1,0,2.569Z" transform="translate(-286 182)" fill="#fff"/>
    <path id="Path_309" data-name="Path 309" d="M39.1,49.569H18.053a1.31,1.31,0,0,1,0-2.569H39.1a1.31,1.31,0,0,1,0,2.569Z" transform="translate(-286 165.54)" fill="#fff"/>
    <path id="Path_310" data-name="Path 310" d="M39.1,74.569H18.053a1.31,1.31,0,0,1,0-2.569H39.1a1.31,1.31,0,0,1,0,2.569Z" transform="translate(-286 149.08)" fill="#fff"/>
  </g>
</svg>
