<svg xmlns="http://www.w3.org/2000/svg" width="80" height="80" viewBox="0 0 80 80">
  <g id="Mint_Contract" transform="translate(-1649 -213)">
    <rect id="Rectangle_633" data-name="Rectangle 633" width="80" height="80" transform="translate(1649 213)" fill="none"/>
    <g id="Minting" transform="translate(1656 220)">
      <path id="Path_824" data-name="Path 824" d="M6.833,19.24a35.442,35.442,0,0,0,14.6,2.847,35.442,35.442,0,0,0,14.6-2.847c4.406-2.057,6.833-4.967,6.833-8.2s-2.427-6.14-6.833-8.2A35.442,35.442,0,0,0,21.437,0a35.442,35.442,0,0,0-14.6,2.847C2.427,4.9,0,7.813,0,11.043S2.427,17.183,6.833,19.24Z" transform="translate(0)" fill="#30b52b"/>
      <circle id="Ellipse_106" data-name="Ellipse 106" cx="11.048" cy="11.048" r="11.048" transform="translate(32.757 32.757)" fill="#30b52b"/>
      <path id="Path_825" data-name="Path 825" d="M184.736,162a22.736,22.736,0,1,0,22.736,22.736A22.761,22.761,0,0,0,184.736,162Zm0,37.677a14.941,14.941,0,1,1,14.941-14.941A14.941,14.941,0,0,1,184.736,199.677Z" transform="translate(-141.473 -141.473)" fill="#30b52b"/>
      <path id="Path_826" data-name="Path 826" d="M17.491,326.7a36.883,36.883,0,0,1-12.306-3.047A20.232,20.232,0,0,1,0,320.28v13.865c0,3.23,2.427,6.14,6.833,8.2a35.443,35.443,0,0,0,14.6,2.847,41.663,41.663,0,0,0,7.464-.659A26.674,26.674,0,0,1,17.491,326.7Z" transform="translate(0 -279.189)" fill="#30b52b"/>
      <path id="Path_827" data-name="Path 827" d="M6.859,171.342a32.33,32.33,0,0,0,10.321,2.635v-.308a26.53,26.53,0,0,1,6.9-17.872q-1.3.073-2.615.073a39.385,39.385,0,0,1-16.252-3.212A20.234,20.234,0,0,1,.03,149.28v13.865C.026,166.375,2.453,169.285,6.859,171.342Z" transform="translate(-0.026 -130.126)" fill="#30b52b"/>
    </g>
  </g>
</svg>
