<svg xmlns="http://www.w3.org/2000/svg" width="44" height="44" viewBox="0 0 44 44">
  <g id="Mintable" transform="translate(-978 -231)">
    <rect id="Rectangle_628" data-name="Rectangle 628" width="44" height="44" transform="translate(978 231)" fill="none"/>
    <g id="Minting" transform="translate(982 235)">
      <path id="Path_824" data-name="Path 824" d="M3.711,10.449a19.248,19.248,0,0,0,7.931,1.546,19.248,19.248,0,0,0,7.931-1.546c2.393-1.117,3.711-2.7,3.711-4.451s-1.318-3.335-3.711-4.451A19.248,19.248,0,0,0,11.642,0,19.248,19.248,0,0,0,3.711,1.546C1.318,2.663,0,4.243,0,6S1.318,9.332,3.711,10.449Z" transform="translate(0)" fill="#30b52b"/>
      <circle id="Ellipse_106" data-name="Ellipse 106" cx="6" cy="6" r="6" transform="translate(18 18)" fill="#30b52b"/>
      <path id="Path_825" data-name="Path 825" d="M174.347,162a12.347,12.347,0,1,0,12.347,12.347A12.361,12.361,0,0,0,174.347,162Zm0,20.461a8.114,8.114,0,1,1,8.114-8.114A8.114,8.114,0,0,1,174.347,182.461Z" transform="translate(-150.57 -150.57)" fill="#30b52b"/>
      <path id="Path_826" data-name="Path 826" d="M9.5,323.769a20.029,20.029,0,0,1-6.683-1.655A10.988,10.988,0,0,1,0,320.28v7.53c0,1.754,1.318,3.334,3.711,4.451a19.248,19.248,0,0,0,7.931,1.546,22.623,22.623,0,0,0,4.053-.358,14.486,14.486,0,0,1-6.2-9.68Z" transform="translate(0 -297.682)" fill="#30b52b"/>
      <path id="Path_827" data-name="Path 827" d="M3.738,161.261a17.557,17.557,0,0,0,5.605,1.431v-.167a14.408,14.408,0,0,1,3.749-9.706q-.706.039-1.42.039a21.389,21.389,0,0,1-8.826-1.744A10.989,10.989,0,0,1,.03,149.28v7.53C.028,158.564,1.346,160.144,3.738,161.261Z" transform="translate(-0.028 -138.747)" fill="#30b52b"/>
    </g>
  </g>
</svg>
