<svg xmlns="http://www.w3.org/2000/svg" width="100" height="100" viewBox="0 0 100 100">
  <g id="ModularComponents" transform="translate(-870 -271)">
    <rect id="Rectangle_610" data-name="Rectangle 610" width="100" height="100" transform="translate(870 271)" fill="none"/>
    <g id="Group_963" data-name="Group 963" transform="translate(-496.926 -507.62)">
      <g id="Coins" transform="translate(1370.468 788.085)">
        <g id="Group_755" data-name="Group 755" transform="translate(4.458 6.415)">
          <path id="Path_792" data-name="Path 792" d="M87.67,63.258c-.655-6.361-13.3-9.694-25.831-9.694-1.884,0-3.766.085-5.614.234V16.619a2.268,2.268,0,0,0-.062-.509c-.656-6.361-13.3-9.694-25.833-9.694S5.167,9.748,4.521,16.109a2.187,2.187,0,0,0-.063.509v39.2c0,6.689,13.018,10.189,25.879,10.189,1.914,0,3.779-.1,5.629-.252v7.8c0,1.929,1.114,4.709,6.42,7,.051.023.1.042.159.06a52.808,52.808,0,0,0,19.3,3.147,52.875,52.875,0,0,0,19.3-3.144c.054-.02.107-.039.16-.062,5.321-2.283,6.438-5.066,6.438-7v-9.8a2.188,2.188,0,0,0-.071-.5Zm-4.471.509c0,.426-.748,1.543-3.56,2.772l-.133.053a49.006,49.006,0,0,1-17.667,2.836A48.985,48.985,0,0,1,44.174,66.6c-.041-.018-.085-.035-.127-.05-2.455-1.076-3.326-2.068-3.515-2.583a.594.594,0,0,1-.038-.192c0-1.344,4.586-4.116,13.507-5.208a2.176,2.176,0,0,0,.422-.054,65.116,65.116,0,0,1,7.416-.407c14.092-.015,21.36,3.967,21.36,5.661ZM9.7,23.063c.067.033.125.068.193.1.31.151.635.3.978.453.056.024.112.044.169.063.257.107.546.2.816.3.339.128.665.262,1.023.381.319.107.665.2,1,.3.361.109.71.224,1.088.325s.745.18,1.12.271.745.187,1.137.271.821.151,1.234.231.771.151,1.173.218c.441.073.907.128,1.353.192.395.054.78.118,1.182.165.5.06,1.026.1,1.543.151.367.033.726.077,1.1.106.593.047,1.2.074,1.8.106.3.015.614.041.927.053.921.035,1.855.053,2.8.053s1.873-.018,2.794-.053c.342-.014.673-.041,1.01-.059.576-.03,1.155-.056,1.72-.1.41-.032.8-.079,1.209-.116.479-.047.963-.086,1.432-.142.435-.051.853-.118,1.279-.178s.847-.11,1.255-.177c.431-.07.839-.151,1.256-.234.384-.071.778-.136,1.152-.216.407-.086.789-.186,1.182-.281.358-.086.729-.166,1.076-.26.375-.1.721-.213,1.079-.322s.686-.2,1.01-.3.641-.237.96-.357c.292-.11.6-.212.877-.327.056-.02.112-.039.166-.063.34-.151.662-.293.969-.443.151-.071.277-.151.416-.216s.314-.16.453-.24l.06-.032v3.729c0,.425-.756,1.543-3.56,2.772-.048.015-.1.035-.142.054A47.933,47.933,0,0,1,30.33,32.09a47.933,47.933,0,0,1-17.658-2.842c-.045-.02-.091-.038-.138-.054-2.8-1.229-3.549-2.348-3.549-2.772V22.689l.039.02C9.236,22.829,9.466,22.945,9.7,23.063Zm-.063,9.762c.091.045.174.092.266.138q.453.227.97.446c.053.023.107.044.162.062a52.773,52.773,0,0,0,19.3,3.155A52.8,52.8,0,0,0,49.625,33.48c.054-.018.107-.039.16-.062.345-.151.67-.3.981-.453.092-.045.174-.092.265-.138.21-.107.419-.213.614-.322l.045-.024v3.746c0,.425-.756,1.543-3.56,2.772-.047.015-.091.033-.135.051A48.977,48.977,0,0,1,30.33,41.88a48.958,48.958,0,0,1-17.664-2.836q-.065-.027-.132-.05c-2.8-1.23-3.549-2.349-3.549-2.774V32.483l.033.018C9.208,32.61,9.424,32.718,9.634,32.825Zm-.648,9.469.033.018c.2.109.405.216.615.323.091.045.174.094.266.139.3.151.63.3.97.453q.082.033.168.063A53.16,53.16,0,0,0,30.33,46.421a53.183,53.183,0,0,0,19.289-3.128c.056-.02.112-.041.166-.063.345-.151.67-.3.981-.453.092-.045.174-.092.265-.138.21-.106.419-.213.614-.322l.045-.024v3.731c0,.431-.772,1.578-3.687,2.827A48.71,48.71,0,0,1,30.33,51.692,48.707,48.707,0,0,1,12.665,48.85c-2.91-1.253-3.679-2.4-3.679-2.83ZM30.33,10.95c14.093,0,21.36,3.974,21.36,5.669,0,.425-.756,1.543-3.56,2.772L48,19.442a48.977,48.977,0,0,1-17.665,2.83,48.958,48.958,0,0,1-17.664-2.83l-.133-.05c-2.452-1.078-3.326-2.068-3.512-2.583a.594.594,0,0,1-.038-.19C8.985,14.924,16.247,10.95,30.33,10.95ZM8.985,55.823V52.09l.036.018c.2.112.414.222.63.333.085.044.163.088.251.13.3.151.632.3.975.453a52.516,52.516,0,0,0,19.452,3.2,52.51,52.51,0,0,0,19.455-3.206c.343-.151.665-.3.973-.453.113-.056.216-.112.325-.168.189-.1.381-.2.558-.292l.047-.026v2.242c-7.084,1.1-12.971,3.394-14.974,6.819-2.069.207-4.2.337-6.384.337C16.247,61.485,8.985,57.522,8.985,55.823ZM83.2,73.555c0,.425-.748,1.542-3.56,2.772-.047.017-.094.035-.139.054a47.985,47.985,0,0,1-17.661,2.842A48.675,48.675,0,0,1,44.18,76.382c-.042-.018-.088-.035-.133-.051-2.806-1.232-3.552-2.351-3.552-2.775V69.838l.047.026c.177.1.369.2.558.292.1.054.2.107.3.162.3.151.63.3.972.446a1.536,1.536,0,0,0,.165.062c.246.1.523.193.782.292.351.133.689.271,1.058.395.313.106.652.2.978.3.367.112.721.228,1.105.331s.756.183,1.138.274.732.184,1.117.266c.42.089.863.163,1.3.243.37.07.729.151,1.108.207.47.076.96.136,1.442.2.366.051.721.109,1.094.151.522.062,1.058.107,1.593.151.351.033.694.076,1.058.1.6.047,1.226.076,1.844.107.3.015.587.039.887.05q1.383.054,2.8.054t2.8-.054c.277-.011.544-.033.818-.047.642-.032,1.285-.062,1.912-.11.33-.026.647-.065.974-.1.559-.051,1.125-.1,1.672-.165.34-.039.665-.094,1-.139.515-.07,1.035-.136,1.536-.218.345-.056.668-.124,1.005-.186.47-.086.948-.168,1.4-.263.343-.074.664-.151,1-.237.422-.1.854-.2,1.259-.3.334-.089.641-.192.963-.287.376-.112.763-.219,1.123-.34.322-.109.615-.228.922-.343s.621-.219.907-.339a1.709,1.709,0,0,0,.166-.063c.343-.151.667-.3.975-.453.112-.056.213-.112.32-.166.189-.1.379-.193.556-.292l.051-.027Z" transform="translate(-4.458 -6.415)" fill="#091f5c"/>
        </g>
      </g>
      <g id="Burn" transform="translate(1027 526.4)">
        <path id="Path_793" data-name="Path 793" d="M37.495,14.713c-3.165.8-4.385,2.021-5.262,4.614.381-2.707.229-10.181-9.342-13.727,1.716,5,1.678,12.812-1.22,15.138.915-3.089-1.525-5.758-3.889-7.7,1.373,7.969-8.351,9.38-4.652,19.447a12.222,12.222,0,0,0,6.978,6.635c-2.021-5.338,2.707-12.583,6.1-14.109-1.03,2.555,1.182,6.368,2.555,7.245a3.4,3.4,0,0,1,.839-3.813c.267,4,6.063,5.948,3.775,11.439a11.239,11.239,0,0,0,7.588-9C42.109,24.666,36.046,19.861,37.495,14.713Z" transform="translate(377 253.62)" fill="#0089ff"/>
      </g>
    </g>
  </g>
</svg>
