<svg xmlns="http://www.w3.org/2000/svg" width="30" height="30" viewBox="0 0 30 30">
  <g id="Origin-Active" transform="translate(-1068 -136)">
    <rect id="Rectangle_637" data-name="Rectangle 637" width="30" height="30" transform="translate(1068 136)" fill="none"/>
    <g id="Group_967" data-name="Group 967" transform="translate(1050.449 284)">
      <path id="Subtraction_2" data-name="Subtraction 2" d="M9.564,19.127a9.634,9.634,0,0,1-1.927-.194,9.509,9.509,0,0,1-3.42-1.439A9.592,9.592,0,0,1,.752,13.286a9.519,9.519,0,0,1-.557-1.8,9.656,9.656,0,0,1,0-3.855,9.509,9.509,0,0,1,1.439-3.42A9.592,9.592,0,0,1,5.841.752a9.519,9.519,0,0,1,1.8-.557,9.656,9.656,0,0,1,3.855,0l.176.038a5.425,5.425,0,0,1,1.051.629,4.128,4.128,0,0,1,1.027,1.126,3.6,3.6,0,0,1,.515,1.719,4.71,4.71,0,0,1-.087,1.112,6.823,6.823,0,0,1-.4,1.3c-.114-.138-.235-.273-.362-.4a5.454,5.454,0,0,0-1.731-1.167,5.412,5.412,0,0,0-1.022-.317,5.5,5.5,0,0,0-2.195,0,5.417,5.417,0,0,0-1.947.819,5.46,5.46,0,0,0-1.973,2.4,5.41,5.41,0,0,0-.317,1.022,5.5,5.5,0,0,0,0,2.195,5.415,5.415,0,0,0,.819,1.947,5.46,5.46,0,0,0,2.4,1.973,5.41,5.41,0,0,0,1.022.317,5.5,5.5,0,0,0,2.195,0,5.415,5.415,0,0,0,1.947-.819,5.461,5.461,0,0,0,1.973-2.4,5.412,5.412,0,0,0,.317-1.022,5.5,5.5,0,0,0,0-2.195,5.419,5.419,0,0,0-.254-.865,1.076,1.076,0,0,0-.018-.158,6.463,6.463,0,0,1-.106-1.263,9.284,9.284,0,0,1,.093-1.215,8.51,8.51,0,0,1,.4-1.682,1.677,1.677,0,0,1,.314-.525.651.651,0,0,1,.476-.236.676.676,0,0,1,.357.114c.057.054.113.109.169.164a9.578,9.578,0,0,1,2.05,3.04,9.519,9.519,0,0,1,.557,1.8,9.656,9.656,0,0,1,0,3.855,9.509,9.509,0,0,1-1.439,3.42,9.592,9.592,0,0,1-4.208,3.465,9.519,9.519,0,0,1-1.8.557A9.634,9.634,0,0,1,9.564,19.127Z" transform="translate(21.551 -139.834)" fill="#fff"/>
      <g id="Group_1" data-name="Group 1" transform="translate(35.276 -145)">
        <path id="Path_6" data-name="Path 6" d="M544.117,193.914s-1.735-2.139.547-4.607,6.107-1.758,6.107-1.758a5.363,5.363,0,0,0-1.42,1.726,8.631,8.631,0,0,1-2.223,3.713,5.364,5.364,0,0,1-1.823,1.093,3.622,3.622,0,0,1-.689.191s.856-3.565,2.757-4.706A5.283,5.283,0,0,0,544.117,193.914Z" transform="translate(-543.485 -187.454)" fill="#fff"/>
        <path id="Path_7" data-name="Path 7" d="M559.68,195.505s.689-3.274,2.757-4.706a23.143,23.143,0,0,1,3.4-2.02,9.787,9.787,0,0,0-1.322,1.606,17.038,17.038,0,0,1-1.435,2.88A5.76,5.76,0,0,1,559.68,195.505Z" transform="translate(-558.549 -188.687)" fill="#fff"/>
      </g>
    </g>
  </g>
</svg>
