<svg xmlns="http://www.w3.org/2000/svg" width="34" height="34" viewBox="0 0 34 34">
  <g id="Wallet" transform="translate(-761 -266)">
    <circle id="Ellipse_131" data-name="Ellipse 131" cx="17" cy="17" r="17" transform="translate(761 266)" fill="#fee6e6"/>
    <path id="Path_891" data-name="Path 891" d="M147.137,70.632H135.384v-.491l10.28-.863v.863h1.472V68.669a1.658,1.658,0,0,0-1.942-1.685l-9.855,1.407a2.339,2.339,0,0,0-1.943,2.241v9.814a1.963,1.963,0,0,0,1.963,1.963h11.778a1.964,1.964,0,0,0,1.963-1.963V72.594a1.964,1.964,0,0,0-1.963-1.963Zm-1.472,6.876a1.472,1.472,0,1,1,1.472-1.472A1.473,1.473,0,0,1,145.664,77.508Z" transform="translate(636.604 208.036)" fill="#f03131"/>
  </g>
</svg>
