<svg xmlns="http://www.w3.org/2000/svg" width="22" height="22" viewBox="0 0 22 22">
  <g id="Group_1003" data-name="Group 1003" transform="translate(-1162 -377)">
    <rect id="Rectangle_664" data-name="Rectangle 664" width="22" height="22" transform="translate(1162 377)" fill="none"/>
    <path id="Artwork" d="M7.747,0A7.747,7.747,0,1,1,0,7.747,7.751,7.751,0,0,1,7.747,0Zm5.165,7.747a1.133,1.133,0,0,0-1.133-1.133A1.087,1.087,0,0,0,11,6.931a5.6,5.6,0,0,0-3.017-.96L8.5,3.552l1.676.353a.807.807,0,1,0,.806-.843.784.784,0,0,0-.716.453l-1.876-.4a.226.226,0,0,0-.154.027.221.221,0,0,0-.091.127l-.571,2.7a5.488,5.488,0,0,0-3.062.96A1.128,1.128,0,0,0,2.6,7.747a1.129,1.129,0,0,0,.67,1.033,2.12,2.12,0,0,0-.027.344c0,1.74,2.02,3.144,4.521,3.144s4.521-1.4,4.521-3.144a2.009,2.009,0,0,0-.027-.335,1.172,1.172,0,0,0,.652-1.042ZM9.668,10.682a2.949,2.949,0,0,1-1.912.589,2.989,2.989,0,0,1-1.912-.589.211.211,0,0,1,.3-.3,2.546,2.546,0,0,0,1.622.471,2.563,2.563,0,0,0,1.622-.471.213.213,0,0,1,.3,0,.233.233,0,0,1-.018.3Zm-4.5-2.129a.806.806,0,1,1,.806.806A.808.808,0,0,1,5.165,8.553Zm4.358.806a.806.806,0,1,1,.806-.806A.808.808,0,0,1,9.523,9.36Z" transform="translate(1165 380)" fill="#8ca6f0"/>
  </g>
</svg>
