<svg xmlns="http://www.w3.org/2000/svg" width="26" height="26" viewBox="0 0 26 26">
  <g id="Reditt_Active" transform="translate(-983 -131)">
    <g id="Rectangle_598" data-name="Rectangle 598" transform="translate(983 131)" fill="#fff" stroke="#f0f0f0" stroke-width="1">
      <rect width="26" height="26" rx="2" stroke="none"/>
      <rect x="0.5" y="0.5" width="25" height="25" rx="1.5" fill="none"/>
    </g>
    <path id="Reddit" d="M47.1,70.5a1.733,1.733,0,0,0-1.719-1.744,1.7,1.7,0,0,0-1.167.462,8.424,8.424,0,0,0-4.339-1.41l.761-2.543,2.331.469a1.552,1.552,0,0,0,1.539,1.4h.014a1.567,1.567,0,0,0,0-3.133H44.5a1.542,1.542,0,0,0-1.372.844l-3.116-.625L38.944,67.8l-.087,0a8.487,8.487,0,0,0-4.471,1.414,1.692,1.692,0,0,0-1.167-.462,1.749,1.749,0,0,0-.778,3.3,3.174,3.174,0,0,0-.042.514c0,2.633,3.092,4.773,6.9,4.773s6.9-2.14,6.9-4.776a3.62,3.62,0,0,0-.038-.514A1.743,1.743,0,0,0,47.1,70.5Zm-14.405.7a.874.874,0,0,1,.479-1.594.858.858,0,0,1,.521.177A3.432,3.432,0,0,0,32.691,71.194Zm11.237-5.627a.573.573,0,1,1,.573.584A.58.58,0,0,1,43.929,65.567Zm-8.017,6.228a1.1,1.1,0,1,1,1.1,1.1A1.1,1.1,0,0,1,35.911,71.795ZM39.3,75.671a3.974,3.974,0,0,1-2.682-1.032l.438-.431a3.314,3.314,0,0,0,2.244.848,3.374,3.374,0,0,0,2.24-.848l.438.431A3.96,3.96,0,0,1,39.3,75.671ZM41.6,72.9a1.1,1.1,0,1,1,1.1-1.1A1.1,1.1,0,0,1,41.6,72.9Zm4.311-1.692a3.484,3.484,0,0,0-1.018-1.438.852.852,0,0,1,.528-.181.889.889,0,0,1,.49,1.619Z" transform="translate(956.5 73)" fill="#1f1f1f" opacity="0.996"/>
  </g>
</svg>
