<svg xmlns="http://www.w3.org/2000/svg" width="25" height="25" viewBox="0 0 25 25">
  <g id="Selected_Circle" transform="translate(-31 -64.999)">
    <path id="Path_830" data-name="Path 830" d="M26.338,8.661a12.5,12.5,0,1,0,0,17.678A12.5,12.5,0,0,0,26.338,8.661ZM23.555,15.29l-6.586,6.586-.044.044a1.562,1.562,0,0,1-2.21,0h0a1.542,1.542,0,0,1-.247-.334l-3.024-3.024a1.563,1.563,0,1,1,2.21-2.21l2.21,2.21,5.481-5.481a1.563,1.563,0,0,1,2.21,2.21Z" transform="translate(26 60)" fill="#1bc714"/>
  </g>
</svg>
