<svg xmlns="http://www.w3.org/2000/svg" width="77.726" height="77.727" viewBox="0 0 77.726 77.727">
  <g id="Success" transform="translate(-31 -65)">
    <path id="Path_830" data-name="Path 830" d="M71.343,16.382a38.863,38.863,0,1,0,0,54.961A38.863,38.863,0,0,0,71.343,16.382Zm-8.655,20.61L42.213,57.468l-.136.136a4.857,4.857,0,0,1-6.87,0h0a4.794,4.794,0,0,1-.768-1.039l-9.4-9.4a4.858,4.858,0,0,1,6.87-6.87l6.87,6.87,17.04-17.04a4.858,4.858,0,0,1,6.87,6.87Z" transform="translate(26 60)" fill="#1bc714"/>
  </g>
</svg>
