<svg xmlns="http://www.w3.org/2000/svg" width="22" height="22" viewBox="0 0 22 22">
  <g id="tick" transform="translate(-12.2 -12.2)">
    <path id="Path_819" data-name="Path 819" d="M41.614,37.134,35.89,42.557l-2.377-2.511a1.018,1.018,0,1,0-1.473,1.406l3.08,3.214a.971.971,0,0,0,.7.3.937.937,0,0,0,.7-.268l6.461-6.126a1,1,0,0,0,.033-1.406.971.971,0,0,0-1.406-.033Z" transform="translate(-14.329 -17.715)" fill="#1bc714"/>
    <path id="Path_820" data-name="Path 820" d="M23.2,12.2a11,11,0,1,0,11,11A11,11,0,0,0,23.2,12.2Zm0,20.207A9.207,9.207,0,1,1,32.407,23.2,9.207,9.207,0,0,1,23.2,32.407Z" transform="translate(0 0)" fill="#1bc714"/>
  </g>
</svg>
