<svg xmlns="http://www.w3.org/2000/svg" width="30" height="30" viewBox="0 0 30 30">
  <g id="Token-Active" transform="translate(-1320 -136)">
    <rect id="Rectangle_636" data-name="Rectangle 636" width="30" height="30" transform="translate(1320 136)" fill="none"/>
    <g id="Token" transform="translate(1322.5 138.5)">
      <path id="Path_805" data-name="Path 805" d="M12.5,2.5a10,10,0,1,0,10,10A10.009,10.009,0,0,0,12.5,2.5Zm3.789,4.126.611-.842a.175.175,0,0,1,.253-.042l.484.358a9.733,9.733,0,0,1,1.326,1.305l.316.4a.192.192,0,0,1-.021.253l-.821.653a.192.192,0,0,1-.253-.021l-.295-.4a8.147,8.147,0,0,0-1.137-1.116l-.421-.295A.2.2,0,0,1,16.289,6.626ZM11.005,4.416l.611-.084a6.979,6.979,0,0,1,1.874,0l.526.063a.205.205,0,0,1,.168.211l-.105,1.032a.205.205,0,0,1-.211.168l-.526-.084a5.668,5.668,0,0,0-1.579.021l-.526.063a.189.189,0,0,1-.211-.147l-.168-1.032A.189.189,0,0,1,11.005,4.416ZM5.742,7.826,6.1,7.342A8.778,8.778,0,0,1,7.426,6.016l.4-.316a.192.192,0,0,1,.253.021l.653.821a.192.192,0,0,1-.021.253l-.421.316A8.147,8.147,0,0,0,7.174,8.247l-.295.421a.175.175,0,0,1-.253.042L5.784,8.1A.2.2,0,0,1,5.742,7.826ZM4.626,14.142a.189.189,0,0,1-.211-.147l-.084-.611a6.979,6.979,0,0,1,0-1.874l.063-.526a.205.205,0,0,1,.211-.168l1.032.105a.205.205,0,0,1,.168.211l-.084.526a5.668,5.668,0,0,0,.021,1.579l.084.505a.189.189,0,0,1-.147.211Zm4.084,4.232-.611.842a.175.175,0,0,1-.253.042L7.363,18.9a8.778,8.778,0,0,1-1.326-1.326l-.316-.4a.192.192,0,0,1,.021-.253l.821-.653a.192.192,0,0,1,.253.021l.316.4a8.147,8.147,0,0,0,1.137,1.116l.421.295A.259.259,0,0,1,8.711,18.374Zm5.284,2.211-.611.084a6.979,6.979,0,0,1-1.874,0l-.526-.063a.205.205,0,0,1-.168-.211l.105-1.032a.205.205,0,0,1,.211-.168l.526.063a5.668,5.668,0,0,0,1.579-.021l.505-.084a.189.189,0,0,1,.211.147l.168,1.032A.186.186,0,0,1,13.995,20.584Zm.463-4.695-1.853-1.053a.191.191,0,0,0-.211,0l-1.853,1.053a.415.415,0,0,1-.611-.442l.421-2.084a.17.17,0,0,0-.063-.189L8.711,11.721a.407.407,0,0,1,.232-.716l2.126-.232a.183.183,0,0,0,.168-.126l.884-1.937a.411.411,0,0,1,.758,0l.884,1.937c.021.063.105.105.168.126l2.126.232a.41.41,0,0,1,.232.716l-1.579,1.432a.17.17,0,0,0-.063.189l.421,2.084A.416.416,0,0,1,14.458,15.889Zm4.8,1.284-.358.484a8.778,8.778,0,0,1-1.326,1.326l-.4.316a.192.192,0,0,1-.253-.021l-.653-.821a.192.192,0,0,1,.021-.253l.4-.316a8.147,8.147,0,0,0,1.116-1.137l.295-.421a.175.175,0,0,1,.253-.042l.842.611A.187.187,0,0,1,19.258,17.174Zm1.368-3.158a.205.205,0,0,1-.211.168l-1.032-.105a.205.205,0,0,1-.168-.211l.063-.526a5.668,5.668,0,0,0-.021-1.579l-.063-.526a.189.189,0,0,1,.147-.211l1.032-.168a.189.189,0,0,1,.211.147l.084.611a6.979,6.979,0,0,1,0,1.874Z" fill="#fff"/>
    </g>
  </g>
</svg>
