<svg xmlns="http://www.w3.org/2000/svg" width="22" height="22" viewBox="0 0 22 22">
  <g id="Group_983" data-name="Group 983" transform="translate(-1090 -375)">
    <rect id="Rectangle_651" data-name="Rectangle 651" width="22" height="22" transform="translate(1090 375)" fill="none"/>
    <path id="Twitter" d="M20.52,11.956a6.917,6.917,0,0,1-2,.547,3.483,3.483,0,0,0,1.529-1.924,6.959,6.959,0,0,1-2.208.844,3.479,3.479,0,0,0-5.924,3.171,9.871,9.871,0,0,1-7.166-3.632A3.481,3.481,0,0,0,5.83,15.6a3.467,3.467,0,0,1-1.575-.435c0,.014,0,.029,0,.044a3.479,3.479,0,0,0,2.789,3.409,3.5,3.5,0,0,1-.916.122,3.444,3.444,0,0,1-.654-.063A3.48,3.48,0,0,0,8.721,21.1a7.015,7.015,0,0,1-5.147,1.44,9.887,9.887,0,0,0,15.221-8.33q0-.226-.01-.45A7.041,7.041,0,0,0,20.52,11.956Z" transform="translate(1089.426 368.674)" fill="#8ca6f0"/>
  </g>
</svg>
