<svg xmlns="http://www.w3.org/2000/svg" width="74.952" height="70.911" viewBox="0 0 74.952 70.911">
  <g id="Upload" transform="translate(-170.8 -108.92)">
    <path id="Path_863" data-name="Path 863" d="M170.8,427.943a2.349,2.349,0,0,0,2.342,2.342H243.41a2.342,2.342,0,0,0,0-4.684H173.142a2.349,2.349,0,0,0-2.342,2.342Z" transform="translate(0 -250.453)" fill="#0089ff"/>
    <path id="Path_864" data-name="Path 864" d="M229.415,166.481a2.349,2.349,0,0,0,2.342-2.342v-47.9l24.828,21.315a2.467,2.467,0,0,0,1.523.586,2.106,2.106,0,0,0,1.756-.82,2.376,2.376,0,0,0-.234-3.279l-28.693-24.594a2.461,2.461,0,0,0-3.045,0L199.2,134.041a2.325,2.325,0,0,0,3.045,3.514l24.828-21.315v47.9a2.35,2.35,0,0,0,2.343,2.342Z" transform="translate(-21.842)" fill="#0089ff"/>
  </g>
</svg>
