<svg xmlns="http://www.w3.org/2000/svg" width="25" height="25" viewBox="0 0 25 25">
  <g id="XDC-Icon-128X128" transform="translate(0 -0.5)">
    <path id="Combined_Shape" data-name="Combined Shape" d="M12.5,25a12.6,12.6,0,0,1-8.413-3.207A12.448,12.448,0,0,1,0,13.9l2.824-1.4L0,11.1a12.447,12.447,0,0,1,4.087-7.89,12.637,12.637,0,0,1,16.826,0A12.448,12.448,0,0,1,25,11.1l-2.824,1.4L25,13.9a12.448,12.448,0,0,1-4.087,7.889A12.6,12.6,0,0,1,12.5,25Z" transform="translate(0 0.5)" fill="#2149b9"/>
    <path id="X" d="M1.984,9.762,4.1,6.182l2.112,3.58H8.2L5.168,4.841,8.136,0H6.166L4.1,3.527,2.037,0H.067L3.043,4.841,0,9.762Z" transform="translate(8.627 7.892)" fill="#fff"/>
  </g>
</svg>
