<svg id="XDC_Blue_Logo" xmlns="http://www.w3.org/2000/svg" width="89" height="89" viewBox="0 0 89 89">
  <path id="Combined_Shape" data-name="Combined Shape" d="M44.5,89A44.85,44.85,0,0,1,14.551,77.582,44.314,44.314,0,0,1,0,49.5L10.054,44.5,0,39.5A44.312,44.312,0,0,1,14.551,11.418a44.989,44.989,0,0,1,59.9,0A44.316,44.316,0,0,1,89,39.506l-10.054,5L89,49.5A44.313,44.313,0,0,1,74.451,77.582,44.846,44.846,0,0,1,44.5,89Z" fill="#2149b9"/>
  <path id="X" d="M6.923,34.071l7.394-12.5,7.37,12.5h6.946l-10.6-17.176L28.4,0H21.522L14.317,12.308,7.111,0H.235L10.62,16.895,0,34.071Z" transform="translate(30.109 27.545)" fill="#fff"/>
</svg>
